<svg style="enable-background:new 0 0 595.28 841.89" version="1.1" viewBox="0 0 595.28 841.89" xml:space="preserve" xmlns="http://www.w3.org/2000/svg">
<style type="text/css">
	.st0{fill:#CABEBC;}
	.st1{fill:none;stroke:#CABEBC;stroke-width:2;stroke-miterlimit:10;}
</style>

	
		<path class="st0" d="m223.95 168.33c7.34-7.73 19.35-7.73 26.68 0 7.34 7.73 21.7 11.58 31.93 8.55 10.22-3.03 20.62 2.97 23.11 13.34s13.01 20.88 23.37 23.37 16.37 12.89 13.34 23.11 0.82 24.59 8.55 31.93 7.73 19.35 0 26.68c-7.73 7.34-11.58 21.7-8.55 31.93 3.03 10.22-2.97 20.62-13.34 23.11s-20.88 13.01-23.37 23.37c-2.49 10.37-12.89 16.37-23.11 13.34s-24.59 0.82-31.93 8.55-19.35 7.73-26.68 0c-7.34-7.73-21.7-11.58-31.93-8.55-10.22 3.03-20.62-2.97-23.11-13.34s-13.01-20.88-23.37-23.37c-10.37-2.49-16.37-12.89-13.34-23.11s-0.82-24.59-8.55-31.93-7.73-19.35 0-26.68 11.58-21.7 8.55-31.93c-3.03-10.22 2.97-20.62 13.34-23.11s20.88-13.01 23.37-23.37c2.49-10.37 12.89-16.37 23.11-13.34 10.23 3.03 24.59-0.82 31.93-8.55z"/>
	


	
		<path class="st1" d="m223.61 165.44c7.52-7.93 19.84-7.93 27.36 0s22.26 11.88 32.74 8.77 21.15 3.05 23.7 13.68 13.34 21.42 23.97 23.97 16.79 13.21 13.68 23.7c-3.11 10.48 0.84 25.21 8.77 32.74s7.93 19.84 0 27.36-11.88 22.26-8.77 32.74-3.05 21.15-13.68 23.7-21.42 13.34-23.97 23.97-13.21 16.79-23.7 13.68c-10.48-3.11-25.21 0.84-32.74 8.77-7.52 7.93-19.84 7.93-27.36 0s-22.26-11.88-32.74-8.77-21.15-3.05-23.7-13.68-13.34-21.42-23.97-23.97-16.79-13.21-13.68-23.7c3.11-10.48-0.84-25.21-8.77-32.74s-7.93-19.84 0-27.36 11.88-22.26 8.77-32.74 3.05-21.15 13.68-23.7 21.42-13.34 23.97-23.97 13.21-16.79 23.7-13.68c10.48 3.1 25.22-0.84 32.74-8.77z"/>
	

</svg>
