<?xml version="1.0" encoding="UTF-8" standalone="no"?>
<svg
   xmlns:dc="http://purl.org/dc/elements/1.1/"
   xmlns:cc="http://creativecommons.org/ns#"
   xmlns:rdf="http://www.w3.org/1999/02/22-rdf-syntax-ns#"
   xmlns:svg="http://www.w3.org/2000/svg"
   xmlns="http://www.w3.org/2000/svg"
   xmlns:sodipodi="http://sodipodi.sourceforge.net/DTD/sodipodi-0.dtd"
   xmlns:inkscape="http://www.inkscape.org/namespaces/inkscape"
   width="200"
   height="200"
   version="1.1"
   viewBox="0 0 500 500"
   xml:space="preserve"
   id="svg10"
   sodipodi:docname="tastes_bg_2.svg"
   inkscape:version="0.92.4 (5da689c313, 2019-01-14)"><metadata
   id="metadata16"><rdf:RDF><cc:Work
       rdf:about=""><dc:format>image/svg+xml</dc:format><dc:type
         rdf:resource="http://purl.org/dc/dcmitype/StillImage" /></cc:Work></rdf:RDF></metadata><defs
   id="defs14" /><sodipodi:namedview
   pagecolor="#ffffff"
   bordercolor="#666666"
   borderopacity="1"
   objecttolerance="10"
   gridtolerance="10"
   guidetolerance="10"
   inkscape:pageopacity="0"
   inkscape:pageshadow="2"
   inkscape:window-width="1440"
   inkscape:window-height="837"
   id="namedview12"
   showgrid="false"
   inkscape:zoom="0.472"
   inkscape:cx="212.92373"
   inkscape:cy="250"
   inkscape:window-x="-8"
   inkscape:window-y="-8"
   inkscape:window-maximized="1"
   inkscape:current-layer="svg10" />
<style
   type="text/css"
   id="style2">
	.st0{fill:#CABEBC;}
	.st1{fill:none;stroke:#CABEBC;stroke-width:2;stroke-miterlimit:10;}
</style>

	
		<path
   class="st0"
   d="m 225.91136,24.858712 c 14.656,-15.435 38.637,-15.435 53.274,0 14.656,15.435 43.33,23.123 63.757,17.072 20.407,-6.0502 41.173,5.9304 46.145,26.637 4.9719,20.706 25.978,41.691998 46.664,46.663998 20.686,4.972 32.687,25.738 26.637,46.145 -6.0502,20.407 1.6374,49.1 17.072,63.757 15.435,14.656 15.435,38.637 0,53.274 -15.435,14.656 -23.123,43.33 -17.072,63.757 6.0502,20.407 -5.9304,41.173 -26.637,46.145 -20.7066,4.972 -41.692,25.978 -46.664,46.664 -4.972,20.706 -25.738,32.687 -46.145,26.637 -20.407,-6.0502 -49.1,1.6374 -63.757,17.072 -14.656,15.435 -38.637,15.435 -53.274,0 -14.656,-15.435 -43.33,-23.123 -63.757,-17.072 -20.407,6.0502 -41.173,-5.9304 -46.145,-26.637 -4.972,-20.706 -25.978,-41.692 -46.664,-46.664 -20.706,-4.9719 -32.687,-25.738 -26.637,-46.145 6.0502,-20.407 -1.6373,-49.1 -17.072,-63.757 -15.435,-14.656 -15.435,-38.637 0,-53.274 15.435,-14.636 23.123,-43.33 17.072,-63.757 -6.0502,-20.407 5.9304,-41.173 26.637,-46.145 20.706,-4.9719 41.692,-25.977998 46.664,-46.663998 4.9719,-20.706 25.738,-32.687 46.145,-26.637 20.427,6.0502 49.1,-1.6373 63.757,-17.072 z"
   style="fill:#000000;stroke-width:1.99679995"
   id="path4"
   inkscape:connector-curvature="0" />
	


	
		<path
   class="st1"
   d="m 223.91136,18.858712 c 15.016,-15.8340001 39.616,-15.8340001 54.632,0 15.016,15.834 44.448,23.722 65.374,17.512 20.926,-6.2099 42.232,6.0901 47.323,27.316 5.091,21.2259 26.637,42.770998 47.862,47.861998 21.225,5.091 33.526,26.377 27.316,47.323 -6.2099,20.926 1.6773,50.338 17.512,65.374 15.834,15.036 15.834,39.616 0,54.631 -15.834,15.016 -23.722,44.448 -17.512,65.374 6.2099,20.926 -6.0901,42.232 -27.316,47.323 -21.2259,5.091 -42.771,26.637 -47.862,47.862 -5.091,21.225 -26.377,33.526 -47.323,27.316 -20.926,-6.2099 -50.338,1.6773 -65.374,17.512 -15.016,15.834 -39.616,15.834 -54.632,0 -15.016,-15.834 -44.448,-23.722 -65.374,-17.512 -20.926,6.2099 -42.232,-6.0901 -47.323,-27.316 -5.0918,-21.226 -26.637004,-42.771 -47.862004,-47.862 -21.225,-5.091 -33.526,-26.377 -27.316,-47.323 6.2099,-20.926 -1.6773,-50.338 -17.512,-65.374 -15.8340001,-15.036 -15.8340001,-39.616 0,-54.631 15.834,-15.016 23.722,-44.448 17.512,-65.374 -6.2099,-20.926 6.0901,-42.232 27.316,-47.323 21.2259,-5.091 42.771004,-26.636998 47.862004,-47.861998 5.0918,-21.226 26.377,-33.526 47.323,-27.316 20.926,6.19 50.358,-1.6773 65.374,-17.512 z"
   style="fill:none;stroke:#000000;stroke-width:3.99349999;stroke-miterlimit:10;stroke-opacity:1"
   id="path6"
   inkscape:connector-curvature="0" />
	

</svg>