<svg width="217.4" height="179.74" version="1.1" viewBox="0 0 217.4 179.74" xmlns="http://www.w3.org/2000/svg">
 <path transform="translate(-92.61 -323.61)" d="M309.66,421.55c1.28-10-.83-18.7-6.75-26.75-6.51-8.84-15.14-16.29-24.08-22.57-13.47-9.45-33.23-18.58-49.08-9.49-3.17,1.82-.76,6.89,2.48,5.13,20.78-11.29,47.28,10.1,60.71,24.4,7.73,8.23,11.85,16,11,27.52-1,13.1-6.72,25.92-12.86,37.33-5.46,10.16-12.18,20.13-21.18,27.47-13.29,10.84-31.24,15.19-48.06,16.24-34.6,2.16-68.51-11.65-95.26-32.89-12.69-10.07-22.13-23.15-26.86-38.67-3.78-12.44-3.58-25.81-2.09-38.59,1.82-15.65,6.51-30.29,17.33-42.08,9.92-10.8,23.19-19,38.12-19.13,12.47-.14,24.79,4.39,36,9.46s21.4,11.55,29.24,21.34a49.82,49.82,0,0,1,11.2,30.28c.12,11.59-5.82,21.19-13.46,29.36-7.23-7.28-12-19.83-12.1-29.23a.56.56,0,0,0-.74-.54c-1.74-10.61-5.7-21.12-16.17-25.91-9.71-4.45-20.63-4.61-29.55,1.75-14.53,10.35-20.44,35.28-4.62,47.37,1.37,1,2.65-.9,1.83-2.1-8.83-12.91-7.39-28.83,4.71-39.29,7-6.08,15.67-5.85,24.14-3.44a20.2,20.2,0,0,1,11.9,9c-8,.47-12.39,10.4-14.42,17a42.39,42.39,0,0,0-1.62,16c-6.14,7.63-17.47,3.45-25.81,4-8.14.54-14.41,5.81-14.78,14.35-.38,9.07,10.76,15.54,18.38,16.93,12.11,2.22,24.37-2.33,33.28-10.56a.62.62,0,0,0,.14-.19,69.7,69.7,0,0,0,17.88,13.74c-3.89.52-7.75,1.41-11.82,1.24a41.36,41.36,0,0,1-19.25-5.91,1,1,0,0,0-1.12,1.7c5.37,4.4,11.65,6.53,18.48,7.41,5.53.71,13.29.77,18.36-2.1a69.9,69.9,0,0,0,11.52,4.19c5.85,1.53,12.73,1.28,17.73-2.52s6.29-10.18,2.15-15.19a21.36,21.36,0,0,0-1.86-1.94c4.76-1.28,9.26-7,11.89-10.28,4.2-5.29,6.64-11.79,5.79-18.56-1.47-11.65-16-20.82-26.57-15.07a54.86,54.86,0,0,0-7-28.11c-12.53-22.67-40.27-35.46-64.92-39.38-31.76-5-56.37,20-64.93,48.58-8.26,27.58-5.23,60.8,13.21,83.6,11.33,14,26.72,23.26,42.67,31.13,13.41,6.62,27,11.54,41.82,14,27.93,4.69,60.78.49,83.08-18.33C294.87,468.79,306.84,443.48,309.66,421.55ZM189.36,434c-9.09,6.94-20.06,10.55-31.44,8-9.46-2.09-21.57-12.88-10.85-21.74,8.8-7.27,25.3,3.35,32.7-6.67a38.6,38.6,0,0,0,2.35,8.5,43.93,43.93,0,0,0,7.42,11.78A.51.51,0,0,0,189.36,434Zm51.77,4.57c8.69,8.58-4.32,14.68-11.68,13.86-15-1.66-30.28-13.06-39.25-24.68-5.63-7.3-7.1-15.74-6.4-24.77a35.38,35.38,0,0,1,4.76-15.14c2-3.48,5.45-5.54,7.89-8.63,2.29,4.1,3.84,8.86,5.48,13.56a.67.67,0,0,0,.84.45A44.07,44.07,0,0,0,214.44,422c-.07.72.5,1.47,1.25,1.27a33,33,0,0,0,3.2,2.75C225.77,431.12,234.9,432.37,241.13,438.53Zm-7-45.06c10.28-3.25,22.64,4.93,22.91,16,.13,5.78-3.05,10.88-6.5,15.24-2.93,3.69-7.38,5.57-10.48,8.81-6.34-4.48-14.5-6.33-20.83-10.87-.38-.27-.74-.57-1.1-.86,10-6.9,14.77-17.24,15.59-28.28A.72.72,0,0,0,234.09,393.47Z"/>
 <path transform="translate(-92.61 -323.61)" d="m130.84 385.14c-2.64-3-6.22 0.13-3.58 3.14 1.32 1.5 4.9-1.64 3.58-3.14z"/>
 <path transform="translate(-92.61 -323.61)" d="m121.53 393.31c-2-2.25-5.7 1-3.72 3.27 2.63 3.01 6.36-0.26 3.72-3.27z"/>
 <path transform="translate(-92.61 -323.61)" d="m128.3 416.64c-1.32-1.5-4.57 1.35-3.25 2.86 2.64 3 5.89 0.14 3.25-2.86z"/>
 <path transform="translate(-92.61 -323.61)" d="M141,441.87a2.5,2.5,0,0,0-.71-1.35,2.65,2.65,0,0,0-3.86.56,1.46,1.46,0,0,0,.37,1.82,1.58,1.58,0,0,0,.31.42,2.91,2.91,0,0,0,1.29.83A2,2,0,0,0,141,441.87Z"/>
 <path transform="translate(-92.61 -323.61)" d="m140.88 453.36a7.12 7.12 0 0 0-1.29-2.29 2.09 2.09 0 0 0-3.14 2.75 7.3 7.3 0 0 0 2.1 1.58 1.8 1.8 0 0 0 2.33-2.04z"/>
 <path transform="translate(-92.61 -323.61)" d="m179 462.66c-2.64-3-6.22 0.13-3.58 3.14 1.27 1.5 4.85-1.64 3.58-3.14z"/>
 <path transform="translate(-92.61 -323.61)" d="m163.52 468.22a2.93 2.93 0 1 0-4.4 3.86c1.98 2.26 6.38-1.6 4.4-3.86z"/>
 <path transform="translate(-92.61 -323.61)" d="m188 474.71a2.87 2.87 0 1 0-4.31 3.78 2.87 2.87 0 1 0 4.31-3.78z"/>
 <path transform="translate(-92.61 -323.61)" d="m215.86 479.5c-2-2.26-5.53 0.86-3.55 3.11s5.53-0.86 3.55-3.11z"/>
 <path transform="translate(-92.61 -323.61)" d="m226.19 470.08a2.57 2.57 0 0 0 0-1.71 2.84 2.84 0 0 0-3.1-1.79 2.69 2.69 0 1 0 3.07 3.5z"/>
 <path transform="translate(-92.61 -323.61)" d="m250.33 471.85c-2.64-3-6.42 0.32-3.78 3.32 1.98 2.26 5.76-1.06 3.78-3.32z"/>
 <path transform="translate(-92.61 -323.61)" d="m263.68 461.47a2.76 2.76 0 1 0-4.13 3.63 2.76 2.76 0 1 0 4.13-3.63z"/>
 <path transform="translate(-92.61 -323.61)" d="m266.24 439.27c-2.64-3-6.66 0.52-4 3.52 1.3 1.5 5.32-2.02 4-3.52z"/>
 <path transform="translate(-92.61 -323.61)" d="m236 484.48c-2.64-3-6.43 0.32-3.79 3.32 1.93 2.26 5.71-1.06 3.79-3.32z"/>
 <path transform="translate(-92.61 -323.61)" d="m206.22 464a2 2 0 1 0-3 2.65c1.3 1.51 4.32-1.14 3-2.65z"/>
 <path transform="translate(-92.61 -323.61)" d="m121 436.35c-1.31-1.5-4.31 1.12-3 2.62a2 2 0 1 0 3-2.62z"/>
 <path transform="translate(-92.61 -323.61)" d="m108.79 388.12c-8.3 8.36-14 19-15 30.88-0.11 1.29 2 1.59 2.27 0.31 2.06-11.35 5.77-21.68 13.1-30.77 0.28-0.29-0.09-0.7-0.37-0.42z"/>
 <path transform="translate(-92.61 -323.61)" d="m110.47 405.8a43.29 43.29 0 0 0-10.53 29.87 1.06 1.06 0 0 0 2.12 0c0.67-11 3.25-19.85 9.59-29 0.48-0.67-0.65-1.52-1.18-0.87z"/>
 <path transform="translate(-92.61 -323.61)" d="M113.94,425.44c-4.65,7.55-8.54,20.4-2.1,28.06.44.52,1.43,0,1.17-.69-3.76-9.4-2.28-17.82,1.71-26.92A.45.45,0,0,0,113.94,425.44Z"/>
 <path transform="translate(-92.61 -323.61)" d="m131 472.64c-6.07-8.08-5.85-17.34-6.12-27a0.5 0.5 0 0 0-1 0c-0.33 9.81-0.44 19.8 6 27.84 0.45 0.66 1.56-0.19 1.12-0.84z"/>
 <path transform="translate(-92.61 -323.61)" d="m113 373.47c-8 2.85-15.14 9.25-18.23 17.27-0.4 1 1.31 1.75 1.8 0.76a38.92 38.92 0 0 1 6.34-9.7c3-3.21 6.69-5.5 10.24-8 0.13-0.08 0.03-0.41-0.15-0.33z"/>
 <path transform="translate(-92.61 -323.61)" d="M120.92,356.06c-7.92,1.78-19.2,6.71-21.6,15.33-.31,1.12,1.39,1.89,1.92.8,4.1-8.43,12.06-11.48,19.9-15.61A.29.29,0,0,0,120.92,356.06Z"/>
 <path transform="translate(-92.61 -323.61)" d="m197.43 404.75a31.46 31.46 0 0 1-4.79-10.05c-1.1-3.82 0.1-7.63-0.75-11.28a0.93 0.93 0 0 0-1.54-0.41c-2.52 2.79-1.53 7.93-0.81 11.28 0.93 4.29 3.47 8.75 7.21 11.14 0.4 0.26 0.98-0.27 0.68-0.68z"/>
 <path transform="translate(-92.61 -323.61)" d="m196.68 421.74a50.29 50.29 0 0 1-7.44-4.73 35.75 35.75 0 0 1-5.8-6.66 1.28 1.28 0 0 0-2.21 1.3c2.38 5.09 9.26 11.16 15.1 11.37a0.69 0.69 0 0 0 0.35-1.28z"/>
 <path transform="translate(-92.61 -323.61)" d="m210.33 434a31.55 31.55 0 0 1-14.94-1.74c-1.57-0.56-2.67 2-1.14 2.72 5 2.26 11.58 3 16.26-0.31 0.26-0.21 0.22-0.74-0.18-0.67z"/>
 <path transform="translate(-92.61 -323.61)" d="m226.16 442.38c-6.84 0.93-13.24 2.33-20 0.36-2.06-0.6-3 2.7-0.88 3.19a33.15 33.15 0 0 0 21.43-2.38c0.67-0.33 0.1-1.26-0.55-1.17z"/>
 <path transform="translate(-92.61 -323.61)" d="m282.15 426.51c-0.54-0.54-1.52 0.17-1.08 0.84 8.46 12.59 6.87 25.44 5.3 39.65-0.17 1.5 2.14 1.69 2.55 0.34 3.81-12.76 3.2-30.96-6.77-40.83z"/>
 <path transform="translate(-92.61 -323.61)" d="m298.24 430.15a35.84 35.84 0 0 0-10.08-16.32 0.7 0.7 0 0 0-1 1 44.76 44.76 0 0 1 7.9 14.63 36.44 36.44 0 0 1 1.65 8.4c0.26 2.86-0.49 5.65-0.19 8.47a1.15 1.15 0 0 0 2.12 0.58c2.78-4.69 1.02-11.86-0.4-16.76z"/>
 <path transform="translate(-92.61 -323.61)" d="m282.46 395.87c-0.5-0.11-0.9 0.64-0.37 0.88 12.73 5.78 21.24 15.79 21.15 30.25 0 1.45 2 1.36 2.19 0 1.82-14.6-8.67-28.27-22.97-31.13z"/>
 <path transform="translate(-92.61 -323.61)" d="M157.13,417.46a.93.93,0,0,0-1-1.35c-3.14.52-4.75,4.09-5.12,6.94a10.61,10.61,0,0,0,2.42,8.23c.3.37.78-.11.61-.48a10.94,10.94,0,0,1-.24-7.38C154.35,421.12,156.2,419.57,157.13,417.46Z"/>
 <path transform="translate(-92.61 -323.61)" d="m166.2 416.29c-3.16 1.68-4.2 6.26-3.62 9.54a10 10 0 0 0 1.75 4.63c1.12 1.3 1.79 1.34 3.34 1.42a0.21 0.21 0 0 0 0.11-0.4c-1.64-0.76-2.09-4.6-2.14-6.06-0.08-2.66 0.31-4.93 2.49-6.63 1.48-1.15-0.41-3.31-1.93-2.5z"/>
 <path transform="translate(-92.61 -323.61)" d="m121.65 464.62c-3-6.14-2.4-12.37-2.89-18.95a0.43 0.43 0 0 0-0.86 0c-0.57 6.66-0.79 13.66 2.45 19.71 0.46 0.87 1.72 0.11 1.3-0.76z"/>
 <path transform="translate(-92.61 -323.61)" d="m108.82 420.23a53.17 53.17 0 0 0-4.33 24.77 0.51 0.51 0 0 0 1 0c0.77-8.46 1.14-16.39 3.69-24.61 0.09-0.22-0.27-0.39-0.36-0.16z"/>
 <path transform="translate(-92.61 -323.61)" d="m132 459.62z"/>
 <path transform="translate(-92.61 -323.61)" d="M142,480.68c-5.22-6.34-8.21-13.8-9.85-21.81-.13-.62-1.06-.36-.95.26,1.42,7.79,4.16,16.65,10.16,22.19A.45.45,0,0,0,142,480.68Z"/>
 <path transform="translate(-92.61 -323.61)" d="M153.29,484.71c-5-5.48-6.91-11.92-8-19.11,0-.28-.5-.21-.49.07.32,7.13,2.13,15,8,19.62A.41.41,0,0,0,153.29,484.71Z"/>
 <path transform="translate(-92.61 -323.61)" d="M162,490c-3.11-3.79-3.74-8.21-4-13a.38.38,0,0,0-.75,0c-.16,4.72.41,10.25,4,13.69C161.79,491.15,162.43,490.47,162,490Z"/>
 <path transform="translate(-92.61 -323.61)" d="M179.31,496.69c-3.19-3.94-6.16-8.08-7.18-13.15-.13-.61-1-.34-.92.25a22.76,22.76,0,0,0,7.48,13.52A.44.44,0,0,0,179.31,496.69Z"/>
 <path transform="translate(-92.61 -323.61)" d="m170.05 490.78a19.35 19.35 0 0 1-4-10.45 0.4 0.4 0 0 0-0.79 0 16.25 16.25 0 0 0 4.08 11c0.33 0.38 1.01-0.15 0.71-0.55z"/>
 <path transform="translate(-92.61 -323.61)" d="M277.22,441.54c-.19-.25-.6,0-.44.25,3,5.38,2.57,12.71,2.2,18.65-.42,6.77-1.64,14-4.75,20.11a.89.89,0,0,0,1.54.9c3.38-5.78,4.19-13.17,4.75-19.72S281.33,447,277.22,441.54Z"/>
 <path transform="translate(-92.61 -323.61)" d="M272.43,460.17c-.16-.11-.36.1-.26.26,2.36,3.78.09,10.58-.93,14.41-1.31,5-3.95,9.23-5.62,14-.26.76.72,1.13,1.23.71,4-3.25,5.47-11.86,6.53-16.52C274.17,469.54,276,462.61,272.43,460.17Z"/>
 <path transform="translate(-92.61 -323.61)" d="M289.28,405.19a.56.56,0,0,0-.56,1c10.66,6.56,11.56,17.6,12.8,28.85a.82.82,0,0,0,1.63,0C304.14,424,299.78,410.19,289.28,405.19Z"/>
 <path transform="translate(-92.61 -323.61)" d="M146.47,424.58a23.84,23.84,0,0,1,.31-6.25c.06-.43-.65-.61-.83-.22-1.74,3.75-.38,8.56.75,12.31.1.32.65.28.61-.09C147.09,428.41,146.71,426.51,146.47,424.58Z"/>
 <path transform="translate(-92.61 -323.61)" d="M160,416.12c-2.07,3.09-2,8.34-.5,11.66.11.24.44.06.4-.17a19.51,19.51,0,0,1,.81-11.07A.41.41,0,0,0,160,416.12Z"/>
 <path transform="translate(-92.61 -323.61)" d="m176 426.79a11.09 11.09 0 0 1-1.13-11c0.26-0.65-0.7-0.94-1.06-0.44-2.41 3.39-1.63 9.24 1.54 11.91 0.36 0.32 0.96-0.06 0.65-0.47z"/>
 <path transform="translate(-92.61 -323.61)" d="M193.45,408.24c-4.19-3.05-7.92-6.13-9.16-11.41A.65.65,0,0,0,183,397c.42,5.66,4.48,10.43,9.53,12.76A.88.88,0,0,0,193.45,408.24Z"/>
 <path transform="translate(-92.61 -323.61)" d="M199.67,430.39c-3.3-.16-6.92.5-9.72-1.67-.4-.31-.93.18-.57.56,2.72,2.92,6.64,2.58,10.29,2.33A.61.61,0,0,0,199.67,430.39Z"/>
 <path transform="translate(-92.61 -323.61)" d="M214.7,437.83c-3.5,1.54-6.42,3-10.37,2.8a.37.37,0,0,0-.09.73,13.38,13.38,0,0,0,11.06-2.52A.59.59,0,0,0,214.7,437.83Z"/>
 <path transform="translate(-92.61 -323.61)" d="m231.28 447.28a13.8 13.8 0 0 1-8.95 4.06 0.33 0.33 0 0 0 0 0.66 13.61 13.61 0 0 0 9.72-3.95c0.52-0.48-0.26-1.26-0.77-0.77z"/>
</svg>
