<?xml version="1.0" encoding="UTF-8" standalone="no"?>
<svg
   xmlns:dc="http://purl.org/dc/elements/1.1/"
   xmlns:cc="http://creativecommons.org/ns#"
   xmlns:rdf="http://www.w3.org/1999/02/22-rdf-syntax-ns#"
   xmlns:svg="http://www.w3.org/2000/svg"
   xmlns="http://www.w3.org/2000/svg"
   xmlns:sodipodi="http://sodipodi.sourceforge.net/DTD/sodipodi-0.dtd"
   xmlns:inkscape="http://www.inkscape.org/namespaces/inkscape"
   width="410.07"
   height="219.41"
   version="1.1"
   viewBox="0 0 410.07 219.41"
   id="svg11"
   sodipodi:docname="rye-symbol.svg"
   inkscape:version="0.92.4 (5da689c313, 2019-01-14)">
  <metadata
     id="metadata15">
    <rdf:RDF>
      <cc:Work
         rdf:about="">
        <dc:format>image/svg+xml</dc:format>
        <dc:type
           rdf:resource="http://purl.org/dc/dcmitype/StillImage" />
        <dc:title></dc:title>
      </cc:Work>
    </rdf:RDF>
  </metadata>
  <sodipodi:namedview
     pagecolor="#ffffff"
     bordercolor="#666666"
     borderopacity="1"
     objecttolerance="10"
     gridtolerance="10"
     guidetolerance="10"
     inkscape:pageopacity="0"
     inkscape:pageshadow="2"
     inkscape:window-width="1440"
     inkscape:window-height="837"
     id="namedview13"
     showgrid="false"
     inkscape:zoom="2.3818332"
     inkscape:cx="231.10265"
     inkscape:cy="129.81956"
     inkscape:window-x="-8"
     inkscape:window-y="-8"
     inkscape:window-maximized="1"
     inkscape:current-layer="svg11" />
  <defs
     id="defs7">
    <linearGradient
       id="rye"
       x1="0.0073153906"
       y1="-7.7703874e-14"
       x2="299.97491"
       y2="149.98379"
       gradientTransform="matrix(0.63340146,0,0,0.33896441,16.524316,57.723996)"
       gradientUnits="userSpaceOnUse">
      <stop
         offset="0"
         stop-color="#e0d7ce"
         id="stop2" />
      <stop
         offset="50%"
         stop-color="#e0d7ce"
         id="stop4" />
    </linearGradient>
    <linearGradient
       gradientUnits="userSpaceOnUse"
       gradientTransform="matrix(-0.63340171,0,0,0.33896454,396.5336,57.723849)"
       id="rye-1"
       x1="0.0073153906"
       y1="0"
       x2="299.97491"
       y2="149.98379">
      <stop
         offset="0"
         stop-color="#e0d7ce"
         id="stop2-2" />
      <stop
         offset="50%"
         stop-color="#e0d7ce"
         id="stop4-4" />
    </linearGradient>
  </defs>
  <g
     id="g851"
     transform="translate(-1.4939563,1.1419082)">
    <path
       inkscape:connector-curvature="0"
       style="fill:url(#rye);stroke-width:0.4633579"
       id="path9"
       d="m 28.854271,100.50582 c 2.251918,3.95245 4.550174,5.5603 7.877084,6.7048 3.32691,1.1445 9.003044,-0.52359 9.003044,-0.52359 -3.095231,-3.79026 -5.805875,-5.51859 -10.481156,-5.78734 -2.44653,-0.13901 -4.008046,1.00085 -6.398972,-0.39387 z m 8.873304,8.5675 c 2.5253,1.11206 3.933909,-0.19461 6.366537,-0.32898 4.661381,-0.25485 7.524933,1.15376 11.004751,4.57797 0,0 -5.467623,2.28899 -8.873305,1.51519 -3.40568,-0.77382 -5.852209,-2.10829 -8.497983,-5.76418 z M 27.246418,92.063451 c 4.63358,0.801608 7.163515,2.849651 9.846356,6.950369 0,0 -5.852211,1.02866 -9.035479,-0.50043 -3.183269,-1.529078 -5.310082,-3.391778 -7.140345,-7.608335 2.21485,1.69589 3.892206,0.741373 6.329468,1.158396 z m 30.581623,30.892069 c 2.692109,0.53286 3.785633,-1.04255 6.120959,-1.70052 4.485303,-1.26033 7.580534,-0.50042 11.699786,2.09439 0,0 -4.84209,3.4103 -8.340441,3.38714 -3.498354,-0.0232 -6.116327,-0.80161 -9.480304,-3.78101 z M 29.470536,90.43243 c 0,0 -4.92086,0.315084 -7.413726,-1.20473 -2.492866,-1.519814 -4.100718,-3.21107 -5.314715,-6.815995 4.990364,3.89684 9.165219,0.514328 12.746976,8.020725 z m 26.981332,30.92914 c -3.461283,-0.39849 -6.023652,-1.45495 -9.044747,-4.79111 2.627239,0.82476 3.878306,-0.62554 6.273866,-1.02403 4.596512,-0.76918 7.594437,0.31972 11.412507,3.34544 0.01853,0 -5.161808,2.87282 -8.623092,2.4697 z m 8.882572,-12.28362 c 3.790266,0.87111 5.588095,2.15462 7.631504,4.50384 2.043409,2.34922 3.32691,7.97902 3.32691,7.97902 -10.235576,-1.22789 -6.417508,-6.90865 -10.93988,-12.48286 z m -9.239357,2.63189 c -9.772219,-3.41032 -4.791122,-8.14585 -8.062428,-14.57262 3.535421,1.68662 5.022799,3.33154 6.514811,6.06535 1.492014,2.73382 1.566151,8.50727 1.566151,8.50727 z m 7.385924,-2.81724 c 1.77466,2.55312 2.446531,8.28949 2.446531,8.28949 -10.068769,-2.31678 -5.6298,-7.57128 -9.554442,-13.59493 3.70223,1.28351 5.351784,2.75235 7.126446,5.30544 z M 40.419683,89.792997 c 3.350079,2.08511 4.656748,3.887571 5.856845,6.774293 1.200096,2.88672 0.630167,8.64626 0.630167,8.64626 -9.373731,-4.4853 -3.906108,-8.678695 -6.487012,-15.420553 z M 27.876585,75.554008 c 2.451163,2.31679 3.243506,4.07755 3.771734,6.686254 0.528228,2.608706 -0.926716,7.214484 -0.926716,7.214484 -6.78356,-5.222045 -1.969271,-7.928055 -2.845018,-13.919273 z m 5.703937,6.023652 c 3.123031,2.474333 4.23509,4.425069 5.129371,7.446163 0.894281,3.021092 -0.291915,8.692587 -0.291915,8.692587 -8.854771,-5.546387 -2.970124,-9.137412 -4.837456,-16.180451 z m -12.167779,0.463359 c -3.998779,-2.31679 -4.049749,-5.096937 -4.239725,-9.132786 A 37.365182,37.365182 0 0 0 16.52895,68.274656 c 0,0 2.284355,2.390926 3.280574,3.201803 3.095231,2.511398 5.263746,3.526154 5.629799,7.974389 0.208511,2.548469 -0.379954,3.753198 -0.379954,3.753198 0,0 -1.353005,0.139008 -3.646626,-1.190829 z m 41.80415,59.648061 c 0,0 -3.785635,2.89135 -6.598216,2.97477 -2.812582,0.0835 -4.999632,-0.46337 -7.826115,-2.78016 6.019019,0.61164 7.645405,-4.30459 14.424331,-0.19461 z m 8.938174,2.3168 c 0,0 -3.438116,3.28521 -6.218263,3.67905 -2.780147,0.39386 -4.994998,0.10194 -8.025359,-1.88586 6.023653,-0.10657 7.075476,-5.17108 14.243622,-1.79319 z m -17.607601,-5.5603 c 0,0 -4.096083,2.45116 -6.922567,2.21948 -2.826483,-0.23167 -4.957929,-1.02403 -7.538832,-3.66052 5.930981,1.2835 8.136565,-3.40569 14.456767,1.44104 z m 35.92414,7.17278 c 0,0 -2.65504,3.94781 -5.273013,4.93013 -2.617972,0.98232 -4.846725,1.16767 -8.210703,-0.11121 5.861479,-1.40861 5.759539,-6.57504 13.479081,-4.82819 z M 46.383101,134.16879 c 0,0 -3.595658,1.64956 -5.907814,1.2279 -2.312157,-0.42166 -3.994145,-1.23253 -5.944882,-3.59102 4.89306,1.17692 7.195949,-2.2751 11.848061,2.35384 z m 34.89085,11.12059 c 0,0 -3.067429,3.63735 -5.778072,4.33239 -2.710644,0.69504 -4.939396,0.63944 -8.1551,-1.00085 5.963416,-0.74601 6.440675,-5.89855 13.928539,-3.32691 z m 4.355564,-6.23681 c 2.205585,1.1723 4.791122,5.02744 4.791122,5.02744 -7.853918,2.08974 -6.996706,-3.17399 -11.806359,-6.21826 3.113764,-0.43092 4.828188,0.0139 7.015237,1.19082 z M 62.211407,133.8676 c 3.136932,0.25021 4.721616,1.05647 6.626018,2.6782 1.904401,1.62177 3.60029,5.94026 3.60029,5.94026 -8.122663,0.35215 -6.144125,-4.61967 -10.207774,-8.61846 z m 8.127297,2.44653 c 3.1323,-0.0972 4.791122,0.53286 6.857698,1.94147 2.066576,1.40861 4.211923,5.51396 4.211923,5.51396 -8.034626,1.23254 -6.616751,-3.93391 -11.069621,-7.45543 z m -15.944145,-5.78271 c 3.113765,0.60237 4.610412,1.58006 6.338736,3.40569 1.728324,1.82563 2.95159,6.30167 2.95159,6.30167 -8.173634,-0.53751 -5.657601,-5.28229 -9.29496,-9.70736 z M 40.90621,123.44668 c 2.506766,1.0472 3.604924,2.13146 4.744785,3.93854 1.13986,1.8071 1.366906,5.67615 1.366906,5.67615 -6.385072,-1.76077 -4.072916,-5.32863 -6.116324,-9.61469 z m 5.995852,2.86356 c 3.053529,0.96377 4.452869,2.10827 5.986583,4.11925 1.533714,2.01097 2.270454,6.626 2.270454,6.626 -8.080962,-1.47346 -5.087669,-5.9217 -8.261672,-10.74525 z m -6.714058,0.75063 c 0.885015,1.85343 0.78771,2.9238 0.78771,2.9238 0,0 -0.963785,0.51432 -3.062796,0.1807 -3.665162,-0.5931 -4.494572,-2.6504 -5.801241,-5.63443 a 30.118265,30.118265 0 0 0 -1.816363,-3.29912 c 0,0 2.400194,1.13524 3.382512,1.45496 3.034995,1.00085 4.95793,1.13985 6.505546,4.37409 z m 53.897793,17.65858 c -4.304595,-0.92672 -4.040481,-5.24058 -7.047674,-6.21363 3.034996,-0.76455 4.791121,-0.50506 7.117178,0.4263 1.672722,0.66721 3.887573,3.09059 5.050601,4.36944 a 93.385153,93.385153 0 0 0 25.873908,-7.21449 c -1.19546,0.16683 -2.38166,0.3151 -3.55396,0.43557 -2.16387,0.21778 -4.27679,0.36141 -6.32483,0.43556 -2.04804,0.0742 -4.02195,0.0371 -5.91708,0 -1.89514,-0.0371 -3.70687,-0.18071 -5.42129,-0.34752 -1.71442,-0.1668 -3.34081,-0.37995 -4.855991,-0.60235 -3.039629,-0.4402 -5.652967,-1.00087 -7.789047,-1.49667 -1.070356,-0.2502 -2.024874,-0.46334 -2.845017,-0.70893 -0.820144,-0.24557 -1.524448,-0.40776 -2.08511,-0.5792 l -1.723693,-0.51433 1.770028,0.32436 c 0.574563,0.11119 1.288134,0.23168 2.126814,0.36605 0.838677,0.13438 1.802461,0.29192 2.882085,0.46336 2.159247,0.31044 4.791121,0.63016 7.80758,0.87112 1.510551,0.1112 3.118401,0.20851 4.818921,0.25483 1.70053,0.0463 3.47519,0.0742 5.32862,0.0417 1.85343,-0.0324 3.78563,-0.12509 5.77807,-0.30118 1.99244,-0.17608 4.04511,-0.37531 6.14413,-0.6765 2.099,-0.30118 4.25826,-0.7043 6.42677,-1.16767 2.16851,-0.46335 4.39727,-0.97305 6.63529,-1.56614 l 0.39385,-0.1112 0.40775,-0.22705 -0.33825,0.2085 c 4.3324,-1.16765 8.76673,-2.5948 13.26132,-4.07291 a 129.86995,129.86995 0 0 1 14.54016,-4.03121 68.007041,68.007041 0 0 1 15.18887,-1.49202 37.870241,37.870241 0 0 1 7.5481,0.96379 26.828423,26.828423 0 0 1 7.02914,2.68284 21.249594,21.249594 0 0 1 5.69004,4.63357 24.05291,24.05291 0 0 1 2.09438,2.86357 25.40128,25.40128 0 0 1 1.58468,3.04425 c 0.23631,0.51432 0.41702,1.03793 0.62552,1.55226 0.20852,0.51433 0.35679,1.03327 0.50508,1.57078 a 13.25667,13.25667 0 0 1 0.46334,3.31301 16.968167,16.968167 0 0 1 -1.00085,6.08852 16.495542,16.495542 0 0 1 -6.48701,8.29873 16.189725,16.189725 0 0 1 -3.96634,1.88587 18.775262,18.775262 0 0 1 -3.6142,0.76919 22.825011,22.825011 0 0 1 -5.09693,0 c -0.58382,-0.0649 -1.02865,-0.13438 -1.32983,-0.18536 l -0.46337,-0.0742 0.46337,0.0324 c 0.30582,0.0232 0.75527,0.0371 1.33909,0.0556 a 23.770262,23.770262 0 0 0 5.01354,-0.40312 16.875495,16.875495 0 0 0 7.00134,-3.01646 14.591141,14.591141 0 0 0 3.2435,-3.31765 15.962679,15.962679 0 0 0 2.22876,-4.58261 15.124001,15.124001 0 0 0 0.6348,-5.43518 11.44494,11.44494 0 0 0 -0.53286,-2.75236 c -0.15291,-0.46334 -0.36143,-0.92671 -0.53749,-1.39005 -0.17608,-0.46338 -0.39849,-0.92674 -0.63017,-1.39009 a 23.200331,23.200331 0 0 0 -1.53835,-2.68748 21.388601,21.388601 0 0 0 -1.95538,-2.45115 19.618573,19.618573 0 0 0 -5.09693,-3.86905 c -3.88295,-2.0712 -8.54896,-2.89599 -13.28448,-2.95622 a 64.629162,64.629162 0 0 0 -14.44285,1.54762 136.99177,136.99177 0 0 0 -14.22509,3.84123 c -1.16302,0.37069 -2.3168,0.7599 -3.52153,1.11669 -1.20473,0.35679 -2.33995,0.7043 -3.50761,1.03793 -2.31678,0.66724 -4.66139,1.29276 -6.95038,1.85343 -2.28899,0.56066 -4.59187,1.04255 -6.84379,1.43178 l -1.45031,0.2363 a 95.220051,95.220051 0 0 1 -27.194478,9.18839 c -0.852578,1.51519 -2.780146,4.39727 -4.596509,5.31009 -2.502134,1.26034 -4.69845,1.68662 -8.182902,0.77381 3.512254,-0.82015 3.243505,-4.97183 7.334956,-6.45458 z M 70.982772,93.55083 c 0,0 -4.758687,0.139007 -7.098643,-1.431777 -2.339957,-1.570783 -3.799535,-3.280574 -4.740152,-6.811361 4.540908,3.994146 8.729663,0.94525 11.838795,8.243138 z m 5.926348,7.07083 c 0,0 -4.716984,0.66261 -7.195948,-0.63478 -2.478965,-1.29741 -4.119253,-2.831126 -5.425923,-6.213638 4.948663,3.433481 8.757466,-0.06024 12.621871,6.848418 z M 65.834865,85.840553 c 0,0 -4.754052,-0.393854 -6.917933,-2.233385 -2.163882,-1.839531 -3.428848,-3.706863 -3.989512,-7.362758 4.068282,4.513107 8.595289,1.964639 10.907445,9.596143 z m 25.021328,26.777457 c 0,0 -4.457503,1.65419 -7.154246,0.92671 -2.696743,-0.72747 -4.633579,-1.85343 -6.607485,-4.87916 5.551029,2.27972 8.488718,-1.9739 13.743196,3.95245 z M 61.715614,77.611317 c 0,0 -3.887573,-0.759906 -5.518593,-2.451163 -1.631021,-1.691257 -2.5253,-3.32691 -2.733811,-6.375806 3.271306,3.808803 7.144978,2.358492 8.23387,8.826969 z m 8.590655,23.969503 c 5.286913,2.86818 8.678694,-1.03792 13.261304,5.41666 0,0 -4.605778,1.16766 -7.214484,0.1529 -2.608704,-1.01475 -4.406532,-2.36312 -6.065354,-5.56956 z m 15.452987,-2.15925 c 2.780147,1.45032 3.901473,2.81721 5.008899,5.05523 1.107425,2.23803 0.954517,6.87624 0.954517,6.87624 -7.617604,-2.88208 -3.841236,-6.65845 -5.981951,-11.93147 z M 74.763773,86.614362 c 2.400193,2.029507 3.220337,3.609558 3.822702,6.023652 0.602366,2.414095 -0.542128,6.950376 -0.542128,6.950376 -6.83453,-4.462143 -2.326058,-7.35813 -3.299108,-12.974028 z m 5.157172,6.714056 c 2.599438,1.746859 3.581758,3.243505 4.438969,5.560292 0.857214,2.31679 0.208512,6.95038 0.208512,6.95038 -7.279352,-3.6837 -3.109131,-7.04306 -4.666014,-12.510672 z m -9.582241,-13.99341 c 2.173149,2.31679 2.82185,3.970979 3.164734,6.459211 0.342886,2.488231 -1.311302,6.839162 -1.311302,6.839162 -6.292401,-5.184975 -1.496646,-7.585169 -1.853432,-13.298373 z m -7.46933,-2.247285 c -4.17022,-5.143273 -0.199244,-6.704789 0.634801,-11.375437 1.427142,2.316789 1.69589,3.83197 1.561515,5.963416 -0.134373,2.131447 -2.21485,5.412021 -2.21485,5.412021 z m 3.841238,-5.560295 c 1.918301,2.562369 2.386293,4.304595 2.46043,6.834529 0.07413,2.529935 -2.001706,6.690888 -2.001706,6.690888 -5.741004,-5.875378 -0.708938,-7.770511 -0.477259,-13.516151 z m -6.950368,-0.463359 c 0,0 -1.084258,-0.139007 -2.594805,-1.640286 -2.631872,-2.617971 -2.108278,-4.772587 -1.427142,-7.960489 a 30.354577,30.354577 0 0 0 0.463357,-3.739298 c 0,0 1.283502,2.316789 1.895134,3.155467 1.885866,2.585537 3.363979,3.81807 2.738445,7.348857 -0.393853,2.02024 -1.098157,2.835749 -1.098157,2.835749 z M 195.25536,121.57008 a 29.580769,29.580769 0 0 0 -9.0262,-3.37789 52.795002,52.795002 0 0 0 -10.87965,-1.02864 h -2.16389 l -0.70893,0.0371 c -0.92672,0.0417 -1.91367,0.12511 -2.87746,0.22242 a 57.674159,57.674159 0 0 0 -5.84293,0.95913 115.56146,115.56146 0 0 0 -11.77856,3.31302 c -3.93391,1.2974 -7.8771,2.6504 -11.84344,3.85977 a 117.60024,117.60024 0 0 1 -11.80635,2.99792 86.184573,86.184573 0 0 1 -11.32911,1.43641 79.262005,79.262005 0 0 1 -10.19387,-0.0556 84.159698,84.159698 0 0 1 -8.539684,-1.03329 c -2.010974,-0.33362 -3.790267,-0.72284 -5.333249,-1.08427 q -3.206438,-0.46335 -6.445308,-1.06108 c -1.663457,1.39006 -5.184976,3.87831 -7.705644,4.13314 -3.470551,0.35217 -6.213629,-0.12509 -9.860255,-2.73843 4.466769,0.1668 6.843795,-4.17022 11.389337,-4.24899 -3.831971,-2.73845 -2.432629,-7.2284 -5.430555,-10.35606 3.864405,0.46336 5.796608,1.53835 8.085596,3.65591 1.649554,1.52443 3.146199,5.32397 3.933908,7.32568 a 114.41697,114.41697 0 0 0 27.092534,3.33618 c 0.92672,-0.0742 1.85344,-0.15292 2.82649,-0.25022 a 87.078853,87.078853 0 0 0 10.19388,-1.69125 94.793763,94.793763 0 0 1 -28.464086,-8.46556 c -1.575416,0.73673 -4.818922,1.95537 -6.829896,1.6403 -2.780147,-0.43556 -4.800387,-1.39009 -7.103276,-4.14242 3.336177,1.39007 5.527859,-2.15925 9.730516,-0.97306 -2.956223,-3.26668 -0.227045,-6.61676 -2.099011,-9.15595 2.909888,1.14449 4.170222,2.37702 5.532493,4.48994 0.968419,1.51981 1.353005,4.77721 1.556883,6.487 a 93.30175,93.30175 0 0 0 28.695757,9.88344 c 3.66516,-0.85722 7.41372,-1.93684 11.17619,-3.16937 3.86903,-1.24644 7.77515,-2.66431 11.7554,-3.98026 a 105.51586,105.51586 0 0 1 12.13997,-3.4103 58.137517,58.137517 0 0 1 6.19046,-0.95453 c 1.03793,-0.0926 2.05268,-0.20386 3.09523,-0.2363 l 0.77844,-0.0789 h 1.10743 l 0.39849,0.0742 0.74601,0.0742 c 1.99707,0.0649 3.96169,0.19924 5.88,0.46337 a 42.045098,42.045098 0 0 1 5.56029,1.0657 29.96999,29.96999 0 0 1 9.51275,4.25363 22.454325,22.454325 0 0 1 6.16265,6.29704 23.932436,23.932436 0 0 1 2.82649,6.08389 29.293486,29.293486 0 0 1 0.96842,4.17022 c 0.0835,0.46336 0.11583,0.85721 0.1529,1.10742 0.0371,0.25023 0.0464,0.37996 0.0464,0.37996 l -0.41238,-1.44104 a 36.39213,36.39213 0 0 0 -1.45031,-3.96171 26.564309,26.564309 0 0 0 -1.34375,-2.64114 23.492246,23.492246 0 0 0 -1.93683,-2.86819 22.241179,22.241179 0 0 0 -6.15339,-5.35179 z" />
    <path
       id="path9-0"
       d="m 384.20364,100.5057 c -2.25192,3.95245 -4.55017,5.56029 -7.87708,6.7048 -3.32691,1.14449 -9.00306,-0.52361 -9.00306,-0.52361 3.09524,-3.79025 5.80588,-5.51859 10.48116,-5.78733 2.44653,-0.13901 4.00805,1.00086 6.39898,-0.39386 z m -8.8733,8.5675 c -2.52531,1.11205 -3.93392,-0.19462 -6.36655,-0.32899 -4.66138,-0.25485 -7.52493,1.15376 -11.00475,4.57798 0,0 5.46763,2.28898 8.8733,1.51518 3.40568,-0.77381 5.85222,-2.10828 8.498,-5.76417 z m 10.48115,-17.009882 c -4.63358,0.801609 -7.16351,2.849652 -9.84636,6.950378 0,0 5.85222,1.028654 9.03548,-0.500428 3.18328,-1.529086 5.31009,-3.391787 7.14036,-7.608345 -2.21486,1.69589 -3.89221,0.741373 -6.32948,1.158395 z M 355.22985,122.9554 c -2.6921,0.53287 -3.78563,-1.04255 -6.12096,-1.70052 -4.48529,-1.26034 -7.58053,-0.50043 -11.69978,2.09437 0,0 4.84209,3.41033 8.34044,3.38715 3.49836,-0.0232 6.11633,-0.80161 9.4803,-3.781 z m 28.35752,-32.523102 c 0,0 4.92087,0.315083 7.41373,-1.204732 2.49287,-1.519815 4.10072,-3.211072 5.31472,-6.815998 -4.99037,3.896843 -9.16523,0.514328 -12.74698,8.02073 z m -26.98134,30.929152 c 3.46129,-0.39849 6.02365,-1.45495 9.04475,-4.79113 -2.62723,0.82479 -3.8783,-0.62552 -6.27387,-1.02402 -4.59651,-0.76917 -7.59444,0.31972 -11.41251,3.34545 -0.0185,0 5.16181,2.87282 8.6231,2.4697 z m -8.88257,-12.28363 c -3.79027,0.87112 -5.5881,2.15462 -7.63151,4.50385 -2.04341,2.34922 -3.32692,7.97903 -3.32692,7.97903 10.23559,-1.22791 6.41752,-6.90868 10.93989,-12.48288 z m 9.23936,2.63188 c 9.77222,-3.41031 4.79112,-8.14583 8.06243,-14.57261 -3.53542,1.686628 -5.0228,3.33155 -6.51481,6.06536 -1.49202,2.73381 -1.56616,8.50725 -1.56616,8.50725 z m -7.38593,-2.81722 c -1.77467,2.5531 -2.44653,8.28948 -2.44653,8.28948 10.06877,-2.31679 5.6298,-7.57128 9.55445,-13.59493 -3.70223,1.28351 -5.35179,2.75235 -7.12645,5.30545 z m 23.06133,-19.099617 c -3.35008,2.085111 -4.65675,3.887575 -5.85684,6.774293 -1.2001,2.886721 -0.63017,8.646264 -0.63017,8.646264 9.37373,-4.48531 3.9061,-8.6787 6.48701,-15.420557 z m 12.54311,-14.238994 c -2.45116,2.316791 -3.24351,4.077551 -3.77174,6.686258 -0.52823,2.608705 0.92671,7.214485 0.92671,7.214485 6.78357,-5.222046 1.96928,-7.928057 2.84503,-13.919277 z m -5.70394,6.023655 c -3.12303,2.474333 -4.2351,4.42507 -5.12938,7.446165 -0.89428,3.021095 0.29192,8.692594 0.29192,8.692594 8.85477,-5.546392 2.97012,-9.137418 4.83746,-16.180461 z m 12.16778,0.463359 c 3.99878,-2.316791 4.04975,-5.096939 4.23972,-9.132789 a 37.365196,37.365196 0 0 1 0.64408,-4.633581 c 0,0 -2.28436,2.390928 -3.28058,3.201805 -3.09523,2.511401 -5.26375,3.526155 -5.6298,7.974392 -0.20851,2.54847 0.37995,3.753201 0.37995,3.753201 0,0 1.353,0.139008 3.64663,-1.19083 z m -41.80416,59.648087 c 0,0 3.78563,2.89135 6.59821,2.97475 2.81259,0.0834 4.99964,-0.46335 7.82612,-2.78014 -6.01902,0.61163 -7.6454,-4.3046 -14.42433,-0.19461 z m -8.93819,2.31679 c 0,0 3.43813,3.28521 6.21827,3.67906 2.78015,0.39386 4.99501,0.10197 8.02536,-1.88586 -6.02365,-0.10658 -7.07547,-5.17108 -14.24363,-1.7932 z m 17.60762,-5.56029 c 0,0 4.09608,2.45116 6.92256,2.21948 2.82649,-0.23168 4.95794,-1.02402 7.53883,-3.66053 -5.93098,1.2835 -8.13656,-3.40568 -14.45676,1.44105 z m -35.92416,7.17278 c 0,0 2.65504,3.94781 5.27302,4.93012 2.61797,0.98233 4.84672,1.16767 8.2107,-0.1112 -5.86148,-1.40861 -5.75954,-6.57505 -13.47908,-4.82819 z m 44.08852,-11.44958 c 0,0 3.59566,1.64955 5.90782,1.2279 2.31216,-0.42166 3.99415,-1.23254 5.94489,-3.59103 -4.89307,1.17693 -7.19596,-2.27509 -11.84807,2.35386 z m -34.89086,11.12059 c 0,0 3.06743,3.63736 5.77808,4.3324 2.71064,0.69504 4.93939,0.63943 8.15509,-1.00086 -5.96342,-0.746 -6.44067,-5.89854 -13.92853,-3.32691 z m -4.35557,-6.2368 c -2.20558,1.17229 -4.79112,5.02743 -4.79112,5.02743 7.85392,2.08975 6.99671,-3.174 11.80636,-6.21826 -3.11377,-0.43092 -4.82818,0.0139 -7.01524,1.19083 z m 23.41812,-5.18497 c -3.13694,0.25021 -4.72162,1.05645 -6.62602,2.67821 -1.9044,1.62174 -3.6003,5.94025 -3.6003,5.94025 8.12267,0.35214 6.14414,-4.61969 10.20779,-8.61846 z m -8.1273,2.44652 c -3.1323,-0.0973 -4.79112,0.53287 -6.8577,1.94148 -2.06658,1.4086 -4.21193,5.51395 -4.21193,5.51395 8.03464,1.23254 6.61676,-3.9339 11.06963,-7.45543 z m 15.94415,-5.78271 c -3.11377,0.60237 -4.61041,1.58005 -6.33874,3.40569 -1.72833,1.82563 -2.95159,6.30167 -2.95159,6.30167 8.17364,-0.5375 5.65761,-5.28228 9.29497,-9.70736 z m 13.48836,-7.08474 c -2.50677,1.04719 -3.60493,2.13145 -4.74479,3.93854 -1.13986,1.8071 -1.3669,5.67614 -1.3669,5.67614 6.38507,-1.76076 4.07291,-5.32862 6.11632,-9.61468 z m -5.99586,2.86355 c -3.05353,0.96379 -4.45287,2.10828 -5.98659,4.11925 -1.53371,2.01098 -2.27045,6.62603 -2.27045,6.62603 8.08096,-1.47348 5.08768,-5.92172 8.26168,-10.74528 z m 6.71406,0.75065 c -0.88502,1.85342 -0.78771,2.92379 -0.78771,2.92379 0,0 0.96379,0.51432 3.0628,0.1807 3.66517,-0.5931 4.49457,-2.65041 5.80124,-5.63443 a 30.118276,30.118276 0 0 1 1.81636,-3.29912 c 0,0 -2.40019,1.13524 -3.38251,1.45496 -3.03499,1.00084 -4.95793,1.13986 -6.50554,4.3741 z m -53.89781,17.65857 c 4.30459,-0.92671 4.04048,-5.24058 7.04767,-6.21363 -3.03499,-0.76454 -4.79112,-0.50506 -7.11718,0.42629 -1.67272,0.66723 -3.88757,3.09059 -5.0506,4.36946 a 93.385189,93.385189 0 0 1 -25.87392,-7.21448 c 1.19547,0.16681 2.38167,0.31508 3.55396,0.43555 2.16388,0.21778 4.27679,0.36143 6.32484,0.43556 2.04805,0.0742 4.02195,0.0371 5.91708,0 1.89514,-0.0371 3.70687,-0.18071 5.4213,-0.34751 1.71441,-0.16681 3.3408,-0.37996 4.85598,-0.60237 3.03964,-0.44019 5.65297,-1.00086 7.78906,-1.49665 1.07035,-0.25021 2.02487,-0.46336 2.84501,-0.70894 0.82015,-0.24557 1.52445,-0.40775 2.08511,-0.57919 l 1.7237,-0.51433 -1.77003,0.32435 c -0.57457,0.1112 -1.28814,0.23168 -2.12681,0.36605 -0.83868,0.13438 -1.80247,0.29192 -2.88209,0.46336 -2.15925,0.31045 -4.79112,0.63017 -7.80759,0.87111 -1.51054,0.11121 -3.1184,0.20851 -4.81892,0.25485 -1.70052,0.0463 -3.47518,0.0742 -5.32862,0.0417 -1.85343,-0.0325 -3.78564,-0.12511 -5.77808,-0.30119 -1.99244,-0.17607 -4.0451,-0.37531 -6.14412,-0.6765 -2.09901,-0.30118 -4.25826,-0.7043 -6.42678,-1.16766 -2.16851,-0.46336 -4.39727,-0.97305 -6.63529,-1.56615 l -0.39385,-0.1112 -0.40776,-0.22705 0.33825,0.2085 c -4.33239,-1.16765 -8.76673,-2.5948 -13.2613,-4.07291 a 129.87,129.87 0 0 0 -14.54018,-4.03122 68.007067,68.007067 0 0 0 -15.18887,-1.49201 37.870257,37.870257 0 0 0 -7.54812,0.96379 26.828434,26.828434 0 0 0 -7.02913,2.68284 21.249602,21.249602 0 0 0 -5.69004,4.63358 24.052919,24.052919 0 0 0 -2.09438,2.86356 25.401291,25.401291 0 0 0 -1.58468,3.04426 c -0.23631,0.51432 -0.41703,1.03792 -0.62554,1.55225 -0.20851,0.51432 -0.35678,1.03328 -0.50506,1.57078 a 13.256675,13.256675 0 0 0 -0.46336,3.31301 16.968173,16.968173 0 0 0 1.00086,6.08853 16.495548,16.495548 0 0 0 6.48701,8.29874 16.189732,16.189732 0 0 0 3.96635,1.88587 18.77527,18.77527 0 0 0 3.61418,0.76917 22.82502,22.82502 0 0 0 5.09694,0 c 0.58384,-0.0649 1.02866,-0.13438 1.32985,-0.18534 l 0.46336,-0.0742 -0.46336,0.0324 c -0.30582,0.0232 -0.75528,0.0371 -1.33911,0.0556 a 23.77027,23.77027 0 0 1 -5.01353,-0.40312 16.875502,16.875502 0 0 1 -7.00135,-3.01646 14.591146,14.591146 0 0 1 -3.2435,-3.31764 15.962686,15.962686 0 0 1 -2.22876,-4.58262 15.124008,15.124008 0 0 1 -0.63479,-5.43519 11.444944,11.444944 0 0 1 0.53286,-2.75234 c 0.15291,-0.46336 0.36142,-0.92671 0.53749,-1.39008 0.17608,-0.46336 0.3985,-0.92672 0.63017,-1.39007 a 23.20034,23.20034 0 0 1 1.53835,-2.68747 21.388609,21.388609 0 0 1 1.95537,-2.45117 19.618581,19.618581 0 0 1 5.09694,-3.86904 c 3.88294,-2.07121 8.54896,-2.89599 13.28447,-2.95623 a 64.629187,64.629187 0 0 1 14.44288,1.54762 136.99182,136.99182 0 0 1 14.22509,3.84124 c 1.16302,0.37069 2.31679,0.7599 3.52153,1.11669 1.20473,0.35678 2.33995,0.7043 3.50762,1.03792 2.31678,0.66724 4.66138,1.29277 6.95036,1.85344 2.28899,0.56066 4.59188,1.04255 6.8438,1.43177 l 1.45031,0.23631 a 95.220088,95.220088 0 0 0 27.19449,9.18839 c 0.85258,1.51519 2.78015,4.39727 4.59651,5.31009 2.50214,1.26033 4.69845,1.68662 8.18291,0.77381 -3.51226,-0.82015 -3.24351,-4.97183 -7.33496,-6.45459 z m 23.10304,-51.168633 c 0,0 4.75868,0.139008 7.09864,-1.431776 2.33996,-1.570785 3.79953,-3.280575 4.74015,-6.811364 -4.54091,3.994146 -8.72966,0.94525 -11.83879,8.24314 z m -5.92636,7.070853 c 0,0 4.71699,0.66259 7.19596,-0.634809 2.47896,-1.2974 4.11924,-2.831121 5.42591,-6.213632 -4.94866,3.433487 -8.75746,-0.06024 -12.62187,6.848441 z m 11.07426,-14.781131 c 0,0 4.75405,-0.393855 6.91793,-2.233386 2.16389,-1.839532 3.42886,-3.706866 3.98952,-7.36276 -4.06828,4.513108 -8.59529,1.964638 -10.90745,9.596146 z m -25.02134,26.777471 c 0,0 4.45751,1.65418 7.15425,0.92671 2.69675,-0.72748 4.63359,-1.85344 6.60749,-4.87916 -5.55103,2.27972 -8.48873,-1.97391 -13.74321,3.95245 z m 29.14059,-35.006711 c 0,0 3.88757,-0.759907 5.5186,-2.451164 1.63102,-1.691257 2.5253,-3.326912 2.73381,-6.375808 -3.27131,3.808804 -7.14498,2.358493 -8.23387,8.826972 z m -8.59065,23.969521 c -5.28692,2.86817 -8.6787,-1.03793 -13.26131,5.41664 0,0 4.60577,1.16767 7.21448,0.15292 2.6087,-1.01476 4.40654,-2.36312 6.06536,-5.56956 z m -15.453,-2.159258 c -2.78014,1.450318 -3.90147,2.817228 -5.0089,5.055248 -1.10742,2.23802 -0.95452,6.87622 -0.95452,6.87622 7.61761,-2.88208 3.84124,-6.65845 5.98195,-11.931468 z m 10.99549,-12.807215 c -2.40019,2.029508 -3.22034,3.609559 -3.82271,6.023655 -0.60236,2.414095 0.54214,6.950373 0.54214,6.950373 6.83453,-4.462141 2.32605,-7.358128 3.29911,-12.974028 z m -5.15718,6.714059 c -2.59943,1.74686 -3.58176,3.243505 -4.43897,5.560303 -0.8572,2.316781 -0.2085,6.950371 -0.2085,6.950371 7.27935,-3.68371 3.10913,-7.043043 4.66601,-12.510674 z m 9.58225,-13.993415 c -2.17315,2.316791 -2.82185,3.970979 -3.16473,6.459212 -0.34289,2.488232 1.3113,6.839165 1.3113,6.839165 6.2924,-5.184977 1.49664,-7.585172 1.85343,-13.298377 z m 7.46934,-2.247287 c 4.17021,-5.143275 0.19923,-6.704791 -0.63481,-11.37544 -1.42714,2.316789 -1.69588,3.831971 -1.56152,5.963418 0.13438,2.131447 2.21486,5.412022 2.21486,5.412022 z m -3.84125,-5.560296 c -1.9183,2.562369 -2.38629,4.304596 -2.46043,6.834531 -0.0742,2.529935 2.00171,6.690891 2.00171,6.690891 5.741,-5.875381 0.70894,-7.770515 0.47726,-13.516155 z m 6.95038,-0.463358 c 0,0 1.08426,-0.139009 2.5948,-1.640289 2.63187,-2.617972 2.10828,-4.772588 1.42714,-7.960491 a 30.354588,30.354588 0 0 1 -0.46335,-3.7393 c 0,0 -1.28351,2.31679 -1.89514,3.155469 -1.88586,2.585538 -3.36398,3.81807 -2.73845,7.348859 0.39385,2.020241 1.09817,2.835752 1.09817,2.835752 z m -135.49518,50.50604 a 29.58078,29.58078 0 0 1 9.02622,-3.37789 52.795021,52.795021 0 0 1 10.87965,-1.02866 h 2.16388 l 0.70893,0.0371 c 0.92673,0.0417 1.91368,0.12511 2.87746,0.22242 a 57.674182,57.674182 0 0 1 5.84295,0.95915 115.56151,115.56151 0 0 1 11.77856,3.31301 c 3.93391,1.2974 7.87708,2.6504 11.84343,3.85978 a 117.60028,117.60028 0 0 0 11.80637,2.99792 86.184605,86.184605 0 0 0 11.3291,1.43641 79.262034,79.262034 0 0 0 10.19388,-0.0556 84.15973,84.15973 0 0 0 8.53968,-1.03329 c 2.01098,-0.33362 3.79028,-0.72284 5.33326,-1.08426 q 3.20644,-0.46336 6.44531,-1.06109 c 1.66346,1.39007 5.18498,3.87831 7.70565,4.13315 3.47055,0.35216 6.21363,-0.1251 9.86025,-2.73844 -4.46677,0.16681 -6.8438,-4.17023 -11.38933,-4.24899 3.83196,-2.73845 2.43262,-7.22839 5.43055,-10.35606 -3.86441,0.46336 -5.7966,1.53835 -8.0856,3.6559 -1.64956,1.52444 -3.1462,5.32398 -3.93391,7.32569 a 114.41701,114.41701 0 0 1 -27.09254,3.33617 c -0.92673,-0.0742 -1.85344,-0.1529 -2.82649,-0.2502 a 87.078886,87.078886 0 0 1 -10.19388,-1.69126 94.793798,94.793798 0 0 0 28.46409,-8.46556 c 1.57542,0.73675 4.81893,1.95537 6.8299,1.6403 2.78014,-0.43556 4.80038,-1.39008 7.10327,-4.14243 -3.33617,1.39007 -5.52786,-2.15925 -9.73052,-0.97305 2.95623,-3.26668 0.22705,-6.61676 2.09902,-9.15595 -2.90989,1.14449 -4.17022,2.37702 -5.53249,4.48993 -0.96842,1.51981 -1.35302,4.77723 -1.55689,6.48702 a 93.301785,93.301785 0 0 1 -28.69577,9.88343 c -3.66516,-0.85722 -7.41372,-1.93684 -11.17619,-3.16937 -3.86905,-1.24643 -7.77515,-2.66432 -11.7554,-3.98025 a 105.51591,105.51591 0 0 0 -12.13998,-3.41032 58.13754,58.13754 0 0 0 -6.19046,-0.95451 c -1.03793,-0.0927 -2.05268,-0.20388 -3.09524,-0.23631 l -0.77843,-0.0788 h -1.10743 l -0.39849,0.0742 -0.74601,0.0742 c -1.99707,0.0649 -3.96171,0.19924 -5.88001,0.46336 a 42.045113,42.045113 0 0 0 -5.5603,1.06572 29.970001,29.970001 0 0 0 -9.51274,4.25363 22.454333,22.454333 0 0 0 -6.16267,6.29704 23.932445,23.932445 0 0 0 -2.82648,6.08388 29.293498,29.293498 0 0 0 -0.96841,4.17023 c -0.0834,0.46336 -0.11585,0.85721 -0.15291,1.10742 -0.0371,0.25022 -0.0464,0.37996 -0.0464,0.37996 l 0.41239,-1.44105 a 36.392144,36.392144 0 0 1 1.45031,-3.96171 26.56432,26.56432 0 0 1 1.34374,-2.64114 23.492255,23.492255 0 0 1 1.93684,-2.86819 22.241189,22.241189 0 0 1 6.1534,-5.35178 z"
       style="fill:url(#rye-1);stroke-width:0.4633581"
       inkscape:connector-curvature="0" />
  </g>
</svg>
