<svg class="rf" width="410.07" height="219.41" version="1.1" viewBox="0 0 410.07 219.41" xmlns="http://www.w3.org/2000/svg">
 <defs>
  <linearGradient id="rye" x1=".0073154" x2="299.97" y1="-7.7704e-14" y2="149.98" gradientTransform="matrix(.6334 0 0 .33896 15.03 58.866)" gradientUnits="userSpaceOnUse">
   <stop stop-color="#e0d7ce" offset="0"/>
   <stop stop-color="#e0d7ce" offset=".5"/>
  </linearGradient>
  <linearGradient id="rye-1" x1=".0073154" x2="299.97" y2="149.98" gradientTransform="matrix(-.6334 0 0 .33896 352.66 58.432)" gradientUnits="userSpaceOnUse">
   <stop stop-color="#e0d7ce" offset="0"/>
   <stop stop-color="#e0d7ce" offset=".5"/>
  </linearGradient>
 </defs>
 <g transform="translate(21.188 .21295)">
  <path d="m27.36 101.65c2.2519 3.9524 4.5502 5.5603 7.8771 6.7048s9.003-0.52359 9.003-0.52359c-3.0952-3.7903-5.8059-5.5186-10.481-5.7873-2.4465-0.13901-4.008 1.0008-6.399-0.39387zm8.8733 8.5675c2.5253 1.1121 3.9339-0.19461 6.3665-0.32898 4.6614-0.25485 7.5249 1.1538 11.005 4.578 0 0-5.4676 2.289-8.8733 1.5152-3.4057-0.77382-5.8522-2.1083-8.498-5.7642zm-10.481-17.01c4.6336 0.80161 7.1635 2.8497 9.8464 6.9504 0 0-5.8522 1.0287-9.0355-0.50043-3.1833-1.5291-5.3101-3.3918-7.1403-7.6083 2.2148 1.6959 3.8922 0.74137 6.3295 1.1584zm30.582 30.892c2.6921 0.53286 3.7856-1.0426 6.121-1.7005 4.4853-1.2603 7.5805-0.50042 11.7 2.0944 0 0-4.8421 3.4103-8.3404 3.3871-3.4984-0.0232-6.1163-0.80161-9.4803-3.781zm-28.358-32.523s-4.9209 0.31508-7.4137-1.2047-4.1007-3.2111-5.3147-6.816c4.9904 3.8968 9.1652 0.51433 12.747 8.0207zm26.981 30.929c-3.4613-0.39849-6.0237-1.455-9.0447-4.7911 2.6272 0.82476 3.8783-0.62554 6.2739-1.024 4.5965-0.76918 7.5944 0.31972 11.413 3.3454 0.01853 0-5.1618 2.8728-8.6231 2.4697zm8.8826-12.284c3.7903 0.87111 5.5881 2.1546 7.6315 4.5038s3.3269 7.979 3.3269 7.979c-10.236-1.2279-6.4175-6.9086-10.94-12.483zm-9.2394 2.6319c-9.7722-3.4103-4.7911-8.1458-8.0624-14.573 3.5354 1.6866 5.0228 3.3315 6.5148 6.0654 1.492 2.7338 1.5662 8.5073 1.5662 8.5073zm7.3859-2.8172c1.7747 2.5531 2.4465 8.2895 2.4465 8.2895-10.069-2.3168-5.6298-7.5713-9.5544-13.595 3.7022 1.2835 5.3518 2.7524 7.1264 5.3054zm-23.061-19.1c3.3501 2.0851 4.6567 3.8876 5.8568 6.7743s0.63017 8.6463 0.63017 8.6463c-9.3737-4.4853-3.9061-8.6787-6.487-15.421zm-12.543-14.239c2.4512 2.3168 3.2435 4.0776 3.7717 6.6863 0.52823 2.6087-0.92672 7.2145-0.92672 7.2145-6.7836-5.222-1.9693-7.9281-2.845-13.919zm5.7039 6.0237c3.123 2.4743 4.2351 4.4251 5.1294 7.4462 0.89428 3.0211-0.29192 8.6926-0.29192 8.6926-8.8548-5.5464-2.9701-9.1374-4.8375-16.18zm-12.168 0.46336c-3.9988-2.3168-4.0497-5.0969-4.2397-9.1328a37.365 37.365 0 0 0-0.64407-4.6336s2.2844 2.3909 3.2806 3.2018c3.0952 2.5114 5.2637 3.5262 5.6298 7.9744 0.20851 2.5485-0.37995 3.7532-0.37995 3.7532s-1.353 0.13901-3.6466-1.1908zm41.804 59.648s-3.7856 2.8914-6.5982 2.9748c-2.8126 0.0835-4.9996-0.46337-7.8261-2.7802 6.019 0.61164 7.6454-4.3046 14.424-0.19461zm8.9382 2.3168s-3.4381 3.2852-6.2183 3.679c-2.7801 0.39386-4.995 0.10194-8.0254-1.8859 6.0237-0.10657 7.0755-5.1711 14.244-1.7932zm-17.608-5.5603s-4.0961 2.4512-6.9226 2.2195c-2.8265-0.23167-4.9579-1.024-7.5388-3.6605 5.931 1.2835 8.1366-3.4057 14.457 1.441zm35.924 7.1728s-2.655 3.9478-5.273 4.9301c-2.618 0.98232-4.8467 1.1677-8.2107-0.11121 5.8615-1.4086 5.7595-6.575 13.479-4.8282zm-44.089-11.45s-3.5957 1.6496-5.9078 1.2279c-2.3122-0.42166-3.9941-1.2325-5.9449-3.591 4.8931 1.1769 7.1959-2.2751 11.848 2.3538zm34.891 11.121s-3.0674 3.6374-5.7781 4.3324c-2.7106 0.69504-4.9394 0.63944-8.1551-1.0008 5.9634-0.74601 6.4407-5.8986 13.929-3.3269zm4.3556-6.2368c2.2056 1.1723 4.7911 5.0274 4.7911 5.0274-7.8539 2.0897-6.9967-3.174-11.806-6.2183 3.1138-0.43092 4.8282 0.0139 7.0152 1.1908zm-23.418-5.185c3.1369 0.25021 4.7216 1.0565 6.626 2.6782 1.9044 1.6218 3.6003 5.9403 3.6003 5.9403-8.1227 0.35215-6.1441-4.6197-10.208-8.6185zm8.1273 2.4465c3.1323-0.0972 4.7911 0.53286 6.8577 1.9415s4.2119 5.514 4.2119 5.514c-8.0346 1.2325-6.6168-3.9339-11.07-7.4554zm-15.944-5.7827c3.1138 0.60237 4.6104 1.5801 6.3387 3.4057s2.9516 6.3017 2.9516 6.3017c-8.1736-0.53751-5.6576-5.2823-9.295-9.7074zm-13.488-7.0847c2.5068 1.0472 3.6049 2.1315 4.7448 3.9385 1.1399 1.8071 1.3669 5.6762 1.3669 5.6762-6.3851-1.7608-4.0729-5.3286-6.1163-9.6147zm5.9959 2.8636c3.0535 0.96377 4.4529 2.1083 5.9866 4.1192 1.5337 2.011 2.2705 6.626 2.2705 6.626-8.081-1.4735-5.0877-5.9217-8.2617-10.745zm-6.7141 0.75063c0.88502 1.8534 0.78771 2.9238 0.78771 2.9238s-0.96378 0.51432-3.0628 0.1807c-3.6652-0.5931-4.4946-2.6504-5.8012-5.6344a30.118 30.118 0 0 0-1.8164-3.2991s2.4002 1.1352 3.3825 1.455c3.035 1.0008 4.9579 1.1398 6.5055 4.3741zm53.898 17.659c-4.3046-0.92672-4.0405-5.2406-7.0477-6.2136 3.035-0.76455 4.7911-0.50506 7.1172 0.4263 1.6727 0.66721 3.8876 3.0906 5.0506 4.3694a93.385 93.385 0 0 0 25.874-7.2145c-1.1955 0.16683-2.3817 0.3151-3.554 0.43557-2.1639 0.21778-4.2768 0.36141-6.3248 0.43556-2.048 0.0742-4.022 0.0371-5.9171 0s-3.7069-0.18071-5.4213-0.34752c-1.7144-0.1668-3.3408-0.37995-4.856-0.60235-3.0396-0.4402-5.653-1.0009-7.789-1.4967-1.0704-0.2502-2.0249-0.46334-2.845-0.70893-0.82014-0.24557-1.5244-0.40776-2.0851-0.5792l-1.7237-0.51433 1.77 0.32436c0.57456 0.11119 1.2881 0.23168 2.1268 0.36605 0.83868 0.13438 1.8025 0.29192 2.8821 0.46336 2.1592 0.31044 4.7911 0.63016 7.8076 0.87112 1.5106 0.1112 3.1184 0.20851 4.8189 0.25483 1.7005 0.0463 3.4752 0.0742 5.3286 0.0417 1.8534-0.0324 3.7856-0.12509 5.7781-0.30118 1.9924-0.17608 4.0451-0.37531 6.1441-0.6765 2.099-0.30118 4.2583-0.7043 6.4268-1.1677 2.1685-0.46335 4.3973-0.97305 6.6353-1.5661l0.39385-0.1112 0.40775-0.22705-0.33825 0.2085c4.3324-1.1676 8.7667-2.5948 13.261-4.0729a129.87 129.87 0 0 1 14.54-4.0312 68.007 68.007 0 0 1 15.189-1.492 37.87 37.87 0 0 1 7.5481 0.96379 26.828 26.828 0 0 1 7.0291 2.6828 21.25 21.25 0 0 1 5.69 4.6336 24.053 24.053 0 0 1 2.0944 2.8636 25.401 25.401 0 0 1 1.5847 3.0442c0.23631 0.51432 0.41702 1.0379 0.62552 1.5523 0.20852 0.51433 0.35679 1.0333 0.50508 1.5708a13.257 13.257 0 0 1 0.46334 3.313 16.968 16.968 0 0 1-1.0008 6.0885 16.496 16.496 0 0 1-6.487 8.2987 16.19 16.19 0 0 1-3.9663 1.8859 18.775 18.775 0 0 1-3.6142 0.76919 22.825 22.825 0 0 1-5.0969 0c-0.58382-0.0649-1.0286-0.13438-1.3298-0.18536l-0.46337-0.0742 0.46337 0.0324c0.30582 0.0232 0.75527 0.0371 1.3391 0.0556a23.77 23.77 0 0 0 5.0135-0.40312 16.875 16.875 0 0 0 7.0013-3.0165 14.591 14.591 0 0 0 3.2435-3.3176 15.963 15.963 0 0 0 2.2288-4.5826 15.124 15.124 0 0 0 0.6348-5.4352 11.445 11.445 0 0 0-0.53286-2.7524c-0.15291-0.46334-0.36143-0.92671-0.53749-1.39-0.17608-0.46338-0.39849-0.92674-0.63017-1.3901a23.2 23.2 0 0 0-1.5384-2.6875 21.389 21.389 0 0 0-1.9554-2.4512 19.619 19.619 0 0 0-5.0969-3.869c-3.883-2.0712-8.549-2.896-13.284-2.9562a64.629 64.629 0 0 0-14.443 1.5476 136.99 136.99 0 0 0-14.225 3.8412c-1.163 0.37069-2.3168 0.7599-3.5215 1.1167s-2.34 0.7043-3.5076 1.0379c-2.3168 0.66724-4.6614 1.2928-6.9504 1.8534-2.289 0.56066-4.5919 1.0426-6.8438 1.4318l-1.4503 0.2363a95.22 95.22 0 0 1-27.194 9.1884c-0.85258 1.5152-2.7801 4.3973-4.5965 5.3101-2.5021 1.2603-4.6984 1.6866-8.1829 0.77381 3.5123-0.82015 3.2435-4.9718 7.335-6.4546zm-23.103-51.169s-4.7587 0.13901-7.0986-1.4318c-2.34-1.5708-3.7995-3.2806-4.7402-6.8114 4.5409 3.9941 8.7297 0.94525 11.839 8.2431zm5.9263 7.0708s-4.717 0.66261-7.1959-0.63478c-2.479-1.2974-4.1193-2.8311-5.4259-6.2136 4.9487 3.4335 8.7575-0.06024 12.622 6.8484zm-11.074-14.781s-4.7541-0.39385-6.9179-2.2334c-2.1639-1.8395-3.4288-3.7069-3.9895-7.3628 4.0683 4.5131 8.5953 1.9646 10.907 9.5961zm25.021 26.777s-4.4575 1.6542-7.1542 0.92671c-2.6967-0.72747-4.6336-1.8534-6.6075-4.8792 5.551 2.2797 8.4887-1.9739 13.743 3.9524zm-29.141-35.007s-3.8876-0.75991-5.5186-2.4512c-1.631-1.6913-2.5253-3.3269-2.7338-6.3758 3.2713 3.8088 7.145 2.3585 8.2339 8.827zm8.5907 23.97c5.2869 2.8682 8.6787-1.0379 13.261 5.4167 0 0-4.6058 1.1677-7.2145 0.1529s-4.4065-2.3631-6.0654-5.5696zm15.453-2.1592c2.7801 1.4503 3.9015 2.8172 5.0089 5.0552s0.95452 6.8762 0.95452 6.8762c-7.6176-2.8821-3.8412-6.6584-5.982-11.931zm-10.995-12.807c2.4002 2.0295 3.2203 3.6096 3.8227 6.0237 0.60237 2.4141-0.54213 6.9504-0.54213 6.9504-6.8345-4.4621-2.3261-7.3581-3.2991-12.974zm5.1572 6.7141c2.5994 1.7469 3.5818 3.2435 4.439 5.5603 0.85721 2.3168 0.20851 6.9504 0.20851 6.9504-7.2794-3.6837-3.1091-7.0431-4.666-12.511zm-9.5822-13.993c2.1731 2.3168 2.8218 3.971 3.1647 6.4592 0.34289 2.4882-1.3113 6.8392-1.3113 6.8392-6.2924-5.185-1.4966-7.5852-1.8534-13.298zm-7.4693-2.2473c-4.1702-5.1433-0.19924-6.7048 0.6348-11.375 1.4271 2.3168 1.6959 3.832 1.5615 5.9634-0.13437 2.1314-2.2148 5.412-2.2148 5.412zm3.8412-5.5603c1.9183 2.5624 2.3863 4.3046 2.4604 6.8345 0.07413 2.5299-2.0017 6.6909-2.0017 6.6909-5.741-5.8754-0.70894-7.7705-0.47726-13.516zm-6.9504-0.46336s-1.0843-0.13901-2.5948-1.6403c-2.6319-2.618-2.1083-4.7726-1.4271-7.9605a30.355 30.355 0 0 0 0.46336-3.7393s1.2835 2.3168 1.8951 3.1555c1.8859 2.5855 3.364 3.8181 2.7384 7.3489-0.39385 2.0202-1.0982 2.8357-1.0982 2.8357zm135.5 50.506a29.581 29.581 0 0 0-9.0262-3.3779 52.795 52.795 0 0 0-10.88-1.0286h-2.1639l-0.70893 0.0371c-0.92672 0.0417-1.9137 0.12511-2.8775 0.22242a57.674 57.674 0 0 0-5.8429 0.95913 115.56 115.56 0 0 0-11.779 3.313c-3.9339 1.2974-7.8771 2.6504-11.843 3.8598a117.6 117.6 0 0 1-11.806 2.9979 86.185 86.185 0 0 1-11.329 1.4364 79.262 79.262 0 0 1-10.194-0.0556 84.16 84.16 0 0 1-8.5397-1.0333c-2.011-0.33362-3.7903-0.72284-5.3332-1.0843q-3.2064-0.46335-6.4453-1.0611c-1.6635 1.3901-5.185 3.8783-7.7056 4.1331-3.4706 0.35217-6.2136-0.12509-9.8603-2.7384 4.4668 0.1668 6.8438-4.1702 11.389-4.249-3.832-2.7384-2.4326-7.2284-5.4306-10.356 3.8644 0.46336 5.7966 1.5384 8.0856 3.6559 1.6496 1.5244 3.1462 5.324 3.9339 7.3257a114.42 114.42 0 0 0 27.093 3.3362c0.92672-0.0742 1.8534-0.15292 2.8265-0.25022a87.079 87.079 0 0 0 10.194-1.6912 94.794 94.794 0 0 1-28.464-8.4656c-1.5754 0.73673-4.8189 1.9554-6.8299 1.6403-2.7801-0.43556-4.8004-1.3901-7.1033-4.1424 3.3362 1.3901 5.5279-2.1592 9.7305-0.97306-2.9562-3.2667-0.22704-6.6168-2.099-9.156 2.9099 1.1445 4.1702 2.377 5.5325 4.4899 0.96842 1.5198 1.353 4.7772 1.5569 6.487a93.302 93.302 0 0 0 28.696 9.8834c3.6652-0.85722 7.4137-1.9368 11.176-3.1694 3.869-1.2464 7.7752-2.6643 11.755-3.9803a105.52 105.52 0 0 1 12.14-3.4103 58.138 58.138 0 0 1 6.1905-0.95453c1.0379-0.0926 2.0527-0.20386 3.0952-0.2363l0.77844-0.0789h1.1074l0.39849 0.0742 0.74601 0.0742c1.9971 0.0649 3.9617 0.19924 5.88 0.46337a42.045 42.045 0 0 1 5.5603 1.0657 29.97 29.97 0 0 1 9.5128 4.2536 22.454 22.454 0 0 1 6.1626 6.297 23.932 23.932 0 0 1 2.8265 6.0839 29.293 29.293 0 0 1 0.96842 4.1702c0.0835 0.46336 0.11583 0.85721 0.1529 1.1074 0.0371 0.25023 0.0464 0.37996 0.0464 0.37996l-0.41238-1.441a36.392 36.392 0 0 0-1.4503-3.9617 26.564 26.564 0 0 0-1.3438-2.6411 23.492 23.492 0 0 0-1.9368-2.8682 22.241 22.241 0 0 0-6.1534-5.3518z" style="fill:url(#rye);stroke-width:.46336"/>
  <path d="m340.33 101.22c-2.2519 3.9524-4.5502 5.5603-7.8771 6.7048s-9.0031-0.52361-9.0031-0.52361c3.0952-3.7902 5.8059-5.5186 10.481-5.7873 2.4465-0.13901 4.008 1.0009 6.399-0.39386zm-8.8733 8.5675c-2.5253 1.112-3.9339-0.19462-6.3666-0.32899-4.6614-0.25485-7.5249 1.1538-11.005 4.578 0 0 5.4676 2.289 8.8733 1.5152 3.4057-0.77381 5.8522-2.1083 8.498-5.7642zm10.481-17.01c-4.6336 0.80161-7.1635 2.8497-9.8464 6.9504 0 0 5.8522 1.0287 9.0355-0.50043 3.1833-1.5291 5.3101-3.3918 7.1404-7.6083-2.2149 1.6959-3.8922 0.74137-6.3295 1.1584zm-30.582 30.892c-2.6921 0.53287-3.7856-1.0426-6.121-1.7005-4.4853-1.2603-7.5805-0.50043-11.7 2.0944 0 0 4.8421 3.4103 8.3404 3.3872 3.4984-0.0232 6.1163-0.80161 9.4803-3.781zm28.358-32.523s4.9209 0.31508 7.4137-1.2047c2.4929-1.5198 4.1007-3.2111 5.3147-6.816-4.9904 3.8968-9.1652 0.51433-12.747 8.0207zm-26.981 30.929c3.4613-0.39849 6.0236-1.455 9.0448-4.7911-2.6272 0.82479-3.8783-0.62552-6.2739-1.024-4.5965-0.76917-7.5944 0.31972-11.413 3.3454-0.0185 0 5.1618 2.8728 8.6231 2.4697zm-8.8826-12.284c-3.7903 0.87112-5.5881 2.1546-7.6315 4.5038s-3.3269 7.979-3.3269 7.979c10.236-1.2279 6.4175-6.9087 10.94-12.483zm9.2394 2.6319c9.7722-3.4103 4.7911-8.1458 8.0624-14.573-3.5354 1.6866-5.0228 3.3316-6.5148 6.0654s-1.5662 8.5072-1.5662 8.5072zm-7.3859-2.8172c-1.7747 2.5531-2.4465 8.2895-2.4465 8.2895 10.069-2.3168 5.6298-7.5713 9.5544-13.595-3.7022 1.2835-5.3518 2.7524-7.1264 5.3054zm23.061-19.1c-3.3501 2.0851-4.6568 3.8876-5.8568 6.7743-1.2001 2.8867-0.63017 8.6463-0.63017 8.6463 9.3737-4.4853 3.9061-8.6787 6.487-15.421zm12.543-14.239c-2.4512 2.3168-3.2435 4.0776-3.7717 6.6863-0.52823 2.6087 0.92671 7.2145 0.92671 7.2145 6.7836-5.222 1.9693-7.9281 2.845-13.919zm-5.7039 6.0237c-3.123 2.4743-4.2351 4.4251-5.1294 7.4462s0.29192 8.6926 0.29192 8.6926c8.8548-5.5464 2.9701-9.1374 4.8375-16.18zm12.168 0.46336c3.9988-2.3168 4.0498-5.0969 4.2397-9.1328a37.365 37.365 0 0 1 0.64408-4.6336s-2.2844 2.3909-3.2806 3.2018c-3.0952 2.5114-5.2638 3.5262-5.6298 7.9744-0.20851 2.5485 0.37995 3.7532 0.37995 3.7532s1.353 0.13901 3.6466-1.1908zm-41.804 59.648s3.7856 2.8914 6.5982 2.9748 4.9996-0.46335 7.8261-2.7801c-6.019 0.61163-7.6454-4.3046-14.424-0.19461zm-8.9382 2.3168s3.4381 3.2852 6.2183 3.6791c2.7802 0.39386 4.995 0.10197 8.0254-1.8859-6.0236-0.10658-7.0755-5.1711-14.244-1.7932zm17.608-5.5603s4.0961 2.4512 6.9226 2.2195c2.8265-0.23168 4.9579-1.024 7.5388-3.6605-5.931 1.2835-8.1366-3.4057-14.457 1.441zm-35.924 7.1728s2.655 3.9478 5.273 4.9301c2.618 0.98233 4.8467 1.1677 8.2107-0.1112-5.8615-1.4086-5.7595-6.575-13.479-4.8282zm44.089-11.45s3.5957 1.6496 5.9078 1.2279c2.3122-0.42166 3.9942-1.2325 5.9449-3.591-4.8931 1.1769-7.196-2.2751-11.848 2.3539zm-34.891 11.121s3.0674 3.6374 5.7781 4.3324c2.7106 0.69504 4.9394 0.63943 8.1551-1.0009-5.9634-0.746-6.4407-5.8985-13.929-3.3269zm-4.3556-6.2368c-2.2056 1.1723-4.7911 5.0274-4.7911 5.0274 7.8539 2.0898 6.9967-3.174 11.806-6.2183-3.1138-0.43092-4.8282 0.0139-7.0152 1.1908zm23.418-5.185c-3.1369 0.25021-4.7216 1.0564-6.626 2.6782-1.9044 1.6217-3.6003 5.9402-3.6003 5.9402 8.1227 0.35214 6.1441-4.6197 10.208-8.6185zm-8.1273 2.4465c-3.1323-0.0973-4.7911 0.53287-6.8577 1.9415-2.0666 1.4086-4.2119 5.514-4.2119 5.514 8.0346 1.2325 6.6168-3.9339 11.07-7.4554zm15.944-5.7827c-3.1138 0.60237-4.6104 1.58-6.3387 3.4057-1.7283 1.8256-2.9516 6.3017-2.9516 6.3017 8.1736-0.5375 5.6576-5.2823 9.295-9.7074zm13.488-7.0847c-2.5068 1.0472-3.6049 2.1314-4.7448 3.9385s-1.3669 5.6761-1.3669 5.6761c6.3851-1.7608 4.0729-5.3286 6.1163-9.6147zm-5.9959 2.8636c-3.0535 0.96379-4.4529 2.1083-5.9866 4.1192-1.5337 2.011-2.2704 6.626-2.2704 6.626 8.081-1.4735 5.0877-5.9217 8.2617-10.745zm6.7141 0.75065c-0.88502 1.8534-0.78771 2.9238-0.78771 2.9238s0.96379 0.51432 3.0628 0.1807c3.6652-0.5931 4.4946-2.6504 5.8012-5.6344a30.118 30.118 0 0 1 1.8164-3.2991s-2.4002 1.1352-3.3825 1.455c-3.035 1.0008-4.9579 1.1399-6.5055 4.3741zm-53.898 17.659c4.3046-0.92671 4.0405-5.2406 7.0477-6.2136-3.035-0.76454-4.7911-0.50506-7.1172 0.42629-1.6727 0.66723-3.8876 3.0906-5.0506 4.3695a93.385 93.385 0 0 1-25.874-7.2145c1.1955 0.16681 2.3817 0.31508 3.554 0.43555 2.1639 0.21778 4.2768 0.36143 6.3248 0.43556 2.048 0.0742 4.022 0.0371 5.9171 0s3.7069-0.18071 5.4213-0.34751c1.7144-0.16681 3.3408-0.37996 4.856-0.60237 3.0396-0.44019 5.653-1.0009 7.7891-1.4966 1.0704-0.25021 2.0249-0.46336 2.845-0.70894 0.82015-0.24557 1.5244-0.40775 2.0851-0.57919l1.7237-0.51433-1.77 0.32435c-0.57457 0.1112-1.2881 0.23168-2.1268 0.36605-0.83868 0.13438-1.8025 0.29192-2.8821 0.46336-2.1592 0.31045-4.7911 0.63017-7.8076 0.87111-1.5105 0.11121-3.1184 0.20851-4.8189 0.25485-1.7005 0.0463-3.4752 0.0742-5.3286 0.0417s-3.7856-0.12511-5.7781-0.30119c-1.9924-0.17607-4.0451-0.37531-6.1441-0.6765-2.099-0.30118-4.2583-0.7043-6.4268-1.1677-2.1685-0.46336-4.3973-0.97305-6.6353-1.5662l-0.39385-0.1112-0.40776-0.22705 0.33825 0.2085c-4.3324-1.1676-8.7667-2.5948-13.261-4.0729a129.87 129.87 0 0 0-14.54-4.0312 68.007 68.007 0 0 0-15.189-1.492 37.87 37.87 0 0 0-7.5481 0.96379 26.828 26.828 0 0 0-7.0291 2.6828 21.25 21.25 0 0 0-5.69 4.6336 24.053 24.053 0 0 0-2.0944 2.8636 25.401 25.401 0 0 0-1.5847 3.0443c-0.23631 0.51432-0.41703 1.0379-0.62554 1.5522-0.20851 0.51432-0.35678 1.0333-0.50506 1.5708a13.257 13.257 0 0 0-0.46336 3.313 16.968 16.968 0 0 0 1.0009 6.0885 16.496 16.496 0 0 0 6.487 8.2987 16.19 16.19 0 0 0 3.9664 1.8859 18.775 18.775 0 0 0 3.6142 0.76917 22.825 22.825 0 0 0 5.0969 0c0.58384-0.0649 1.0287-0.13438 1.3298-0.18534l0.46336-0.0742-0.46336 0.0324c-0.30582 0.0232-0.75528 0.0371-1.3391 0.0556a23.77 23.77 0 0 1-5.0135-0.40312 16.876 16.876 0 0 1-7.0014-3.0165 14.591 14.591 0 0 1-3.2435-3.3176 15.963 15.963 0 0 1-2.2288-4.5826 15.124 15.124 0 0 1-0.63479-5.4352 11.445 11.445 0 0 1 0.53286-2.7523c0.15291-0.46336 0.36142-0.92671 0.53749-1.3901 0.17608-0.46336 0.3985-0.92672 0.63017-1.3901a23.2 23.2 0 0 1 1.5384-2.6875 21.389 21.389 0 0 1 1.9554-2.4512 19.619 19.619 0 0 1 5.0969-3.869c3.8829-2.0712 8.549-2.896 13.284-2.9562a64.629 64.629 0 0 1 14.443 1.5476 136.99 136.99 0 0 1 14.225 3.8412c1.163 0.37069 2.3168 0.7599 3.5215 1.1167 1.2047 0.35678 2.34 0.7043 3.5076 1.0379 2.3168 0.66724 4.6614 1.2928 6.9504 1.8534 2.289 0.56066 4.5919 1.0426 6.8438 1.4318l1.4503 0.23631a95.22 95.22 0 0 0 27.194 9.1884c0.85258 1.5152 2.7802 4.3973 4.5965 5.3101 2.5021 1.2603 4.6984 1.6866 8.1829 0.77381-3.5123-0.82015-3.2435-4.9718-7.335-6.4546zm23.103-51.169s4.7587 0.13901 7.0986-1.4318c2.34-1.5708 3.7995-3.2806 4.7402-6.8114-4.5409 3.9941-8.7297 0.94525-11.839 8.2431zm-5.9264 7.0709s4.717 0.66259 7.196-0.63481 4.1192-2.8311 5.4259-6.2136c-4.9487 3.4335-8.7575-0.0602-12.622 6.8484zm11.074-14.781s4.754-0.39386 6.9179-2.2334c2.1639-1.8395 3.4289-3.7069 3.9895-7.3628-4.0683 4.5131-8.5953 1.9646-10.907 9.5961zm-25.021 26.777s4.4575 1.6542 7.1542 0.92671c2.6968-0.72748 4.6336-1.8534 6.6075-4.8792-5.551 2.2797-8.4887-1.9739-13.743 3.9524zm29.141-35.007s3.8876-0.75991 5.5186-2.4512c1.631-1.6913 2.5253-3.3269 2.7338-6.3758-3.2713 3.8088-7.145 2.3585-8.2339 8.827zm-8.5906 23.97c-5.2869 2.8682-8.6787-1.0379-13.261 5.4166 0 0 4.6058 1.1677 7.2145 0.15292 2.6087-1.0148 4.4065-2.3631 6.0654-5.5696zm-15.453-2.1593c-2.7801 1.4503-3.9015 2.8172-5.0089 5.0552s-0.95452 6.8762-0.95452 6.8762c7.6176-2.8821 3.8412-6.6584 5.982-11.931zm10.995-12.807c-2.4002 2.0295-3.2203 3.6096-3.8227 6.0237-0.60236 2.4141 0.54214 6.9504 0.54214 6.9504 6.8345-4.4621 2.326-7.3581 3.2991-12.974zm-5.1572 6.7141c-2.5994 1.7469-3.5818 3.2435-4.439 5.5603s-0.2085 6.9504-0.2085 6.9504c7.2794-3.6837 3.1091-7.043 4.666-12.511zm9.5822-13.993c-2.1732 2.3168-2.8218 3.971-3.1647 6.4592-0.34289 2.4882 1.3113 6.8392 1.3113 6.8392 6.2924-5.185 1.4966-7.5852 1.8534-13.298zm7.4693-2.2473c4.1702-5.1433 0.19923-6.7048-0.63481-11.375-1.4271 2.3168-1.6959 3.832-1.5615 5.9634 0.13438 2.1314 2.2149 5.412 2.2149 5.412zm-3.8412-5.5603c-1.9183 2.5624-2.3863 4.3046-2.4604 6.8345-0.0742 2.5299 2.0017 6.6909 2.0017 6.6909 5.741-5.8754 0.70894-7.7705 0.47726-13.516zm6.9504-0.46336s1.0843-0.13901 2.5948-1.6403c2.6319-2.618 2.1083-4.7726 1.4271-7.9605a30.355 30.355 0 0 1-0.46335-3.7393s-1.2835 2.3168-1.8951 3.1555c-1.8859 2.5855-3.364 3.8181-2.7384 7.3489 0.39385 2.0202 1.0982 2.8358 1.0982 2.8358zm-135.5 50.506a29.581 29.581 0 0 1 9.0262-3.3779 52.795 52.795 0 0 1 10.88-1.0287h2.1639l0.70893 0.0371c0.92673 0.0417 1.9137 0.12511 2.8775 0.22242a57.674 57.674 0 0 1 5.843 0.95915 115.56 115.56 0 0 1 11.779 3.313c3.9339 1.2974 7.8771 2.6504 11.843 3.8598a117.6 117.6 0 0 0 11.806 2.9979 86.185 86.185 0 0 0 11.329 1.4364 79.262 79.262 0 0 0 10.194-0.0556 84.16 84.16 0 0 0 8.5397-1.0333c2.011-0.33362 3.7903-0.72284 5.3333-1.0843q3.2064-0.46336 6.4453-1.0611c1.6635 1.3901 5.185 3.8783 7.7056 4.1332 3.4706 0.35216 6.2136-0.1251 9.8602-2.7384-4.4668 0.16681-6.8438-4.1702-11.389-4.249 3.832-2.7384 2.4326-7.2284 5.4306-10.356-3.8644 0.46336-5.7966 1.5384-8.0856 3.6559-1.6496 1.5244-3.1462 5.324-3.9339 7.3257a114.42 114.42 0 0 1-27.093 3.3362c-0.92673-0.0742-1.8534-0.1529-2.8265-0.2502a87.079 87.079 0 0 1-10.194-1.6913 94.794 94.794 0 0 0 28.464-8.4656c1.5754 0.73675 4.8189 1.9554 6.8299 1.6403 2.7801-0.43556 4.8004-1.3901 7.1033-4.1424-3.3362 1.3901-5.5279-2.1592-9.7305-0.97305 2.9562-3.2667 0.22705-6.6168 2.099-9.156-2.9099 1.1445-4.1702 2.377-5.5325 4.4899-0.96842 1.5198-1.353 4.7772-1.5569 6.487a93.302 93.302 0 0 1-28.696 9.8834c-3.6652-0.85722-7.4137-1.9368-11.176-3.1694-3.869-1.2464-7.7752-2.6643-11.755-3.9802a105.52 105.52 0 0 0-12.14-3.4103 58.138 58.138 0 0 0-6.1905-0.95451c-1.0379-0.0927-2.0527-0.20388-3.0952-0.23631l-0.77843-0.0788h-1.1074l-0.39849 0.0742-0.74601 0.0742c-1.9971 0.0649-3.9617 0.19924-5.88 0.46336a42.045 42.045 0 0 0-5.5603 1.0657 29.97 29.97 0 0 0-9.5127 4.2536 22.454 22.454 0 0 0-6.1627 6.297 23.932 23.932 0 0 0-2.8265 6.0839 29.293 29.293 0 0 0-0.96841 4.1702c-0.0834 0.46336-0.11585 0.85721-0.15291 1.1074-0.0371 0.25022-0.0464 0.37996-0.0464 0.37996l0.41239-1.441a36.392 36.392 0 0 1 1.4503-3.9617 26.564 26.564 0 0 1 1.3437-2.6411 23.492 23.492 0 0 1 1.9368-2.8682 22.241 22.241 0 0 1 6.1534-5.3518z" style="fill:url(#rye-1);stroke-width:.46336"/>
 </g>
</svg>
