<svg width="410.07" height="219.41" version="1.1" viewBox="0 0 410.07 219.41" xmlns="http://www.w3.org/2000/svg">
 <defs>
  <linearGradient id="rye" x1=".0073154" x2="299.97" y1="-7.7704e-14" y2="149.98" gradientTransform="matrix(1.3888 0 0 .74324 29.737 6.7166)" gradientUnits="userSpaceOnUse">
   <stop stop-color="#e0d7ce" offset="0"/>
   <stop stop-color="#e0d7ce" offset=".5"/>
  </linearGradient>
 </defs>
 <path d="m116.74 6.7169a66.558 66.558 0 0 1-1.0156 8.1992c-1.4935 6.99-2.6419 11.715 3.1289 17.455 3.227 3.2072 5.5284 3.567 5.6465 3.584 0.0225-0.02616 1.5432-1.8099 2.4004-6.207 1.3716-7.7419-1.8688-10.442-6.0039-16.111-1.3411-1.8389-4.1562-6.9199-4.1562-6.9199zm7.7598 29.238c-1.6e-4 1.94e-4 -8e-3 0.01172-8e-3 0.01172h0.0508s-0.0398-0.01112-0.043-0.01172zm8.252-11.723c-1.8272 10.232-10.519 13.658-1.4141 24.912 0.0561-0.08859 4.5451-7.1934 4.8379-11.838 0.29466-4.6736-0.29457-7.9943-3.4238-13.074zm-1.4141 24.912c-3.6e-4 5.55e-4 -0.0176 0.0293-0.0176 0.0293h0.0391c-8e-3 -0.01-0.0135-0.01938-0.0215-0.0293zm-101.59-19.295a81.93 81.93 0 0 1 1.4141 10.16c0.41656 8.8493 0.52887 14.947 9.2969 20.027v-0.0625c5.0292 2.9159 7.9941 2.6113 7.9941 2.6113s1.2912-2.6406 0.83398-8.2285c-0.80263-9.7535-5.5589-11.98-12.346-17.486-2.1844-1.778-7.1934-7.0215-7.1934-7.0215zm80.986 1.1172c0.4572 6.6852 2.4159 10.274 5.9922 13.982 3.5494 3.6805 11.932 5.3384 12.059 5.3633-2.39-14.171-10.88-10.996-18.051-19.346zm18.051 19.346c5.8e-4 0.0035 8.6e-4 0.0063 2e-3 0.0098h0.041s-0.042-0.0096-0.043-0.0098zm10.996-13.33-0.041 0.02148c-0.50799 12.598-11.541 16.754 1.0469 29.637 0 0 4.5493-9.1265 4.3867-14.674-0.16254-5.5473-1.1864-9.3659-5.3926-14.984zm-85.15 8.7891v0.04102c0.0021 2e-3 0.0037 0.0039 0.0059 0.0059-0.0023-0.01614-0.0035-0.03073-0.0059-0.04687zm0.0059 0.04687c1.8873 13.103-8.6234 19.038 6.2324 30.475 0 0 3.1895-10.1 2.0312-15.82-1.1578-5.7177-2.8942-9.5774-8.2637-14.654zm59.309 1.5078c1.2294 8.0162 4.0014 12.109 8.7461 16.143 4.7447 4.0335 15.168 4.8984 15.168 4.8984-5.0699-16.733-14.994-11.145-23.914-21.041zm33.791 6.7773c0.78235 12.527-9.7327 17.789 4.0645 29.158 0 0 3.6268-9.5402 2.875-14.996-0.75184-5.4559-2.1744-9.0822-6.9395-14.162zm-80.598 4.8262v0.08984c0.0093 0.0074 0.01605 0.01409 0.02539 0.02148-0.01-0.03816-0.01525-0.07308-0.02539-0.11133zm0.02539 0.11133c4.0005 15.368-8.7874 23.234 10.58 35.365 0 0 2.6015-12.434 0.64062-19.059-1.9582-6.6152-4.3943-10.892-11.221-16.307zm-36.947 1.8066c2.6619 7.9044 6.1863 11.613 11.652 14.945 5.466 3.3325 16.256 2.6426 16.256 2.6426h0.04102c-7.8536-16.459-17.007-9.0434-27.949-17.588zm92.973 6.3496c2.0625 7.7419 5.2638 11.493 10.395 14.938 5.1308 3.4442 15.562 3.1387 15.562 3.1387-6.8173-16.002-16-9.3183-25.957-18.076zm34.209 2.8652c2.1336 12.314-7.7534 18.665 7.2324 28.449 0 0 2.5102-9.9469 1.1894-15.24-1.3208-5.2933-3.12-8.7589-8.3828-13.209zm-75.266 6.9707c5.6591 14.783-6.3289 23.978 14.225 33.812 1e-6 0 1.2506-12.629-1.3809-18.959-2.6314-6.3296-5.4981-10.282-12.844-14.854zm-42.762 2.4375c4.0132 9.2455 8.6764 13.331 15.656 16.684 6.9799 3.3528 19.812 1.0957 19.812 1.0957-5.8826-8.9915-11.43-13.481-21.59-15.238-5.3441-0.91439-9.0225 1.1775-13.879-2.541zm129.33 5.3145c3.4137 11.989-5.7308 19.355 10.23 27.432 0 0 1.4245-10.16-0.45507-15.24-1.8796-5.08-4.0347-8.3611-9.7344-12.191zm-34.238 0.97656c2.8651 7.4167 6.4609 10.78 11.896 13.625 5.4356 2.8448 15.779 1.3906 15.779 1.3906-8.4734-15.148-16.825-7.4871-27.676-15.016zm-35.641 7.375c7.1729 14.092-3.7495 24.475 17.678 31.953h0.041s-0.1621-12.66-3.4336-18.654c-3.2715-5.9944-6.5331-9.6006-14.285-13.299zm82.682 5.0098c4.6939 11.562-3.5877 19.841 13.115 26.16 0 0 0.33643-10.169-2.0918-15.076-2.4282-4.9072-4.8865-7.9039-10.982-11.084zm-124.73 2.377c4.9377 8.6664 9.9767 12.192 17.271 14.701s19.74-1.1484 19.74-1.1484c-6.7868-8.3108-12.729-12.1-22.98-12.689-5.3644-0.3048-8.7887 2.1948-14.031-0.86328zm90.85 2.3574c3.6372 7.0307 7.5788 9.9859 13.299 12.211 5.72 2.225 15.82-0.33593 15.82-0.33593-10.048-14.153-17.486-5.586-29.078-11.875zm-30.51 4.3984c8.6054 13.208-1.1283 24.729 20.949 29.809 0 0-1.472-12.578-5.3633-18.176h0.041c-3.8912-5.5981-7.5092-8.8185-15.627-11.633zm78.658 2.7129c4.1046 5.5676-1.8805 12.913 4.6016 20.076-9.215-2.6009-14.021 5.1808-21.336 2.1328 5.0495 6.035 9.4802 8.127 15.576 9.082 4.4094 0.69087 11.522-1.9803 14.977-3.5957a207.85 207.85 0 0 0 62.41 18.562 190.94 190.94 0 0 1-22.352 3.709c-2.1336 0.21336-4.1653 0.38432-6.1973 0.54688a250.88 250.88 0 0 1-59.402-7.3145c-1.7272-4.3891-5.01-12.72-8.627-16.062-5.019-4.6431-9.2571-6.9996-17.73-8.0156 6.5735 6.858 3.506 16.703 11.908 22.707-9.9669 0.17272-15.178 9.6822-24.973 9.3164 7.9958 5.7302 14.009 6.778 21.619 6.0059 5.527-0.5588 13.249-6.0146 16.896-9.0625 4.7345 0.87375 9.4457 1.6469 14.133 2.3242 3.3832 0.79247 7.2859 1.6474 11.695 2.3789a184.53 184.53 0 0 0 18.723 2.2656 173.8 173.8 0 0 0 22.354 0.12305 188.97 188.97 0 0 0 24.84-3.1523 257.86 257.86 0 0 0 25.887-6.5723c8.6969-2.6517 17.345-5.6181 25.971-8.4629a253.39 253.39 0 0 1 25.826-7.2637 126.46 126.46 0 0 1 12.811-2.1035c2.1132-0.21336 4.2786-0.39684 6.3105-0.48828l1.5527-0.082h4.5938c-0.0269-0.19761-0.066-0.39604-0.0488-0.59375 0.10637-1.2251 0.86948-2.0903 0.52344-3.4121-0.26383-1.0078-0.14953-1.763 0.16992-2.2715-0.0246-0.21636-0.0469-0.4271-0.0703-0.63867-0.0899-4e-3 -0.17928-9e-3 -0.26953-0.0117l-1.6348-0.16211-0.875-0.16211h-2.4277l-1.707 0.17187c-2.286 0.0711-4.5113 0.31438-6.7871 0.51758a127.48 127.48 0 0 0-13.574 2.0938 231.36 231.36 0 0 0-26.617 7.4766c-8.7274 2.8854-17.294 5.9955-25.777 8.7285-8.2498 2.7025-16.467 5.0696-24.504 6.9492a204.58 204.58 0 0 1-62.922-21.672c-0.44704-3.749-1.2906-10.892-3.4141-14.225-2.987-4.6329-5.7504-7.3342-12.131-9.8438zm-33.223 8.4219c4.3281 6.6344 8.5752 9.1041 14.488 10.699 5.9131 1.5951 15.688-2.0312 15.688-2.0312h-0.041c-11.521-12.995-17.963-3.6693-30.135-8.668zm-70.488 0.11133c-0.6093 6e-3 -1.2323 0.0252-1.8711 0.0605-5.334 0.29464-8.4218 3.161-13.959 0.72266 5.8013 8.0162 11.165 10.942 18.633 12.639 7.4675 1.6967 19.457-3.3223 19.457-3.3223-7.1532-7.0389-13.12-10.193-22.26-10.1zm44.703 0.79297c0.0184 4e-3 0.0324 0.01 0.0508 0.0137-4e-3 -4e-3 -6e-3 -9e-3 -0.01-0.0137zm0.0508 0.0137c9.8989 12.218 1.5416 24.666 23.977 27.357 0 0-2.8144-12.343-7.2949-17.494-4.4706-5.1397-8.4085-7.9534-16.682-9.8633zm-20.268 13.652c-1.6782 0.0286-3.4462 0.20135-5.3359 0.51758-5.2527 0.87375-7.9952 4.0546-13.756 2.2461 6.6243 7.3151 12.243 9.6302 19.832 10.504h0.041c7.5895 0.88391 18.947-5.4141 18.906-5.4141-6.802-5.3905-12.415-7.9776-19.688-7.8535zm25.668 11.729c-2.6396 0.0108-5.4168 0.44109-8.4902 1.3047-5.1206 1.4427-7.517 4.8969-13.42 3.7285 7.3761 6.5328 13.116 8.2402 20.787 8.291s18.287-7.4258 18.287-7.4258c-6.2096-3.9116-11.357-5.9222-17.164-5.8984zm-82.281 1.2559a66.039 66.039 0 0 1 3.9844 7.2324c2.8651 6.543 4.6823 11.055 12.719 12.355 4.6024 0.73151 6.7148-0.39649 6.7148-0.39649s0.21398-2.3462-1.7266-6.4102h-0.0098c-3.3934-7.0916-7.6109-7.3973-14.266-9.5918-2.1539-0.70104-7.416-3.1894-7.416-3.1894zm319.58 0.7832a149.12 149.12 0 0 0-29.594 3.2812 284.76 284.76 0 0 0-31.883 8.8379c-9.8551 3.241-19.577 6.3713-29.076 8.9316l0.74024-0.45898-0.89258 0.49804-0.86328 0.24414c-4.9072 1.3005-9.794 2.4196-14.549 3.4356s-9.4913 1.9002-14.094 2.5606-9.102 1.0963-13.471 1.4824c-4.3688 0.38608-8.606 0.58904-12.67 0.66016-4.064 0.0711-7.9549 0.01-11.684-0.0918-3.7287-0.1016-7.2543-0.31475-10.566-0.55859-6.6141-0.52832-12.385-1.2294-17.119-1.9102-2.3673-0.37592-4.4814-0.72099-6.3203-1.0156-1.839-0.29464-3.4023-0.55889-4.6621-0.80273l-3.8828-0.71094 3.7812 1.127c1.2294 0.37592 2.774 0.73105 4.5723 1.2695 1.7983 0.53847 3.8894 1.008 6.2363 1.5566 4.6837 1.0871 10.415 2.3141 17.08 3.2793 3.3223 0.48767 6.8873 0.95651 10.646 1.3223 3.7592 0.36575 7.7313 0.68044 11.887 0.76172 4.1554 0.0813 8.4859 0.16256 12.977 0 4.4907-0.16256 9.1225-0.47757 13.867-0.95508 2.5704-0.26416 5.1698-0.58932 7.791-0.95508a204.76 204.76 0 0 1-56.732 15.818c-2.5501-2.8041-7.4065-8.117-11.074-9.5801-5.1003-2.0421-8.9507-2.6119-15.605-0.93554 6.5938 2.1336 6.0166 11.593 15.455 13.625-8.9712 3.2512-8.3828 12.354-16.084 14.152 7.6402 2.0015 12.457 1.0662 17.943-1.6973 3.9827-2.0015 8.2087-8.3183 10.078-11.641a208.79 208.79 0 0 0 59.627-20.148l3.1816-0.51758c4.9377-0.85343 9.9869-1.9113 15.006-3.1406s10.16-2.6014 15.24-4.0644c2.5603-0.73151 5.0498-1.4911 7.6914-2.2734 2.6416-0.78232 5.1706-1.6364 7.7207-2.4492a300.38 300.38 0 0 1 31.189-8.4238 141.71 141.71 0 0 1 27.93-3.2285c0.19461-0.86151 0.30037-1.8185 0.6621-2.6406 2e-3 -0.49161 7e-3 -0.98304 2e-3 -1.4746-0.039-1.019-0.0309-2.038 0.11133-3.0508 0.0568 0.11278 0.265 0.42857 0.21093 0.31445-0.0618-0.13037-0.17512-0.232-0.23047-0.36523-0.0103-0.0248-0.0173-0.0422-0.0273-0.0664a149.12 149.12 0 0 0-0.54687-2e-3zm-296.32 4.0723c4.4805 9.3979-0.58826 17.221 13.412 21.082 0 0-0.4987-8.483-2.998-12.445-2.4993-3.9624-4.9078-6.3406-10.404-8.6367zm13.148 6.2793c6.9595 10.576 0.39635 20.332 18.115 23.562 0 0-1.6156-10.12-4.9785-14.529s-6.4316-6.9199-13.127-9.0332zm16.428 9.2559c7.9755 9.7027 2.4568 20.107 20.379 21.285 0 0-2.681-9.8134-6.4707-13.816-3.7896-4.003-7.071-6.148-13.898-7.4688zm-28.904 2.4746c-4.3686 0.0113-8.6076 1.7719-14.643 0.32031 4.2773 5.1714 7.9654 6.9485 13.035 7.873s12.955-2.6914 12.955-2.6914l-0.0098-0.0195c-4.4627-4.4405-7.9401-5.4912-11.338-5.4824zm46.053 4.8398c0.0162 1e-3 0.0308 5e-3 0.0469 6e-3 -2e-3 -2e-3 -2e-3 -4e-3 -4e-3 -6e-3zm0.0469 6e-3c8.9035 8.7672 4.57 19.665 22.377 18.893 0 0-3.7169-9.4694-7.8926-13.025-4.1659-3.5476-7.6383-5.3141-14.484-5.8672zm-29.551 5.1055c-5.9431 0.17034-10.882 3.5265-19.01 1.7676 5.6591 5.781 10.334 7.5174 16.531 8.0254 6.1975 0.50799 15.18-4.8652 15.18-4.8652h-0.01c-5.1968-3.9852-9.1255-5.03-12.691-4.9277zm49.758 0.25c-0.7656-0.0234-1.5731-0.0233-2.4316 4e-3 9.7637 7.7215 6.6542 19.048 24.271 16.346 0 0-4.705-8.9993-9.2363-12.088-3.9649-2.7025-7.2443-4.098-12.604-4.2617zm20.322 3.043c-1.3875 1e-3 -2.9025 0.11731-4.6094 0.35352 10.546 6.6751 8.6676 18.217 25.889 13.635 0 0-5.6697-8.453-10.506-11.023-3.5966-1.9355-6.6111-2.9682-10.773-2.9648zm-49.635 5.1211c-6.7696 0.16597-11.29 4.9747-20.363 4.0527 6.1975 5.08 10.993 6.2786 17.16 6.0957s14.467-6.5215 14.467-6.5215c-4.645-2.8162-8.1866-3.7024-11.264-3.627zm21.209 6.1621c-7.8986 9e-3 -11.672 6.2994-21.578 6.4746 6.6446 4.3586 11.502 5.0003 17.598 4.1367 6.096-0.86359 13.635-8.0684 13.635-8.0684-3.9294-1.8516-7.0214-2.5461-9.6543-2.543zm21.844 3.8066c-9.439-0.18089-12.122 7.5264-22.746 8.8555 7.051 3.5966 11.937 3.7193 17.881 2.1953 5.9314-1.5209 12.633-9.4577 12.66-9.4902-3.0784-1.0573-5.6167-1.5188-7.7949-1.5605zm21.168 1.4785c-10.382 0.28311-11.916 8.7534-22.76 11.359 7.3761 2.8041 12.264 2.398 18.004 0.24414s11.561-10.811 11.561-10.811l-0.01-0.0195c-2.6448-0.59848-4.8723-0.82586-6.7949-0.77344z" style="fill:url(#rye);stroke-width:1.016"/>
</svg>
