<svg width="410.07" height="219.41" version="1.1" viewBox="0 0 410.07 219.41" xmlns="http://www.w3.org/2000/svg">
    <defs>
       <linearGradient id="rye">
            <stop offset="5%" stop-color="#3b4045" />
            <stop offset="85%" stop-color="#e1e0da" />
        </linearGradient>
    </defs>
    <path fill="url(#rye)" d="m26.61 92.33c4.86 8.53 9.82 12 17 14.47s19.43-1.13 19.43-1.13c-6.68-8.18-12.53-11.91-22.62-12.49-5.28-0.3-8.65 2.16-13.81-0.85zm19.15 18.49c5.45 2.4 8.49-0.42 13.74-0.71 10.06-0.55 16.24 2.49 23.75 9.88 0 0-11.8 4.94-19.15 3.27s-12.63-4.55-18.34-12.44zm-22.62-36.71c10 1.73 15.46 6.15 21.25 15 0 0-12.63 2.22-19.5-1.08s-11.46-7.32-15.41-16.42c4.78 3.66 8.4 1.6 13.66 2.5zm66 66.67c5.81 1.15 8.17-2.25 13.21-3.67 9.68-2.72 16.36-1.08 25.25 4.52 0 0-10.45 7.36-18 7.31s-13.2-1.73-20.46-8.16zm-61.2-70.19s-10.62 0.68-16-2.6-8.85-6.93-11.47-14.71c10.77 8.41 19.78 1.11 27.51 17.31zm58.23 66.75c-7.47-0.86-13-3.14-19.52-10.34 5.67 1.78 8.37-1.35 13.54-2.21 9.92-1.66 16.39 0.69 24.63 7.22 0.04 0-11.14 6.2-18.61 5.33zm19.17-26.51c8.18 1.88 12.06 4.65 16.47 9.72s7.18 17.22 7.18 17.22c-22.09-2.65-13.85-14.91-23.61-26.94zm-19.94 5.68c-21.09-7.36-10.34-17.58-17.4-31.45 7.63 3.64 10.84 7.19 14.06 13.09s3.38 18.36 3.38 18.36zm15.94-6.08c3.83 5.51 5.28 17.89 5.28 17.89-21.73-5-12.15-16.34-20.62-29.34 7.99 2.77 11.55 5.94 15.38 11.45zm-49.77-41.22c7.23 4.5 10.05 8.39 12.64 14.62s1.36 18.66 1.36 18.66c-20.23-9.68-8.43-18.73-14-33.28zm-27.07-30.73c5.29 5 7 8.8 8.14 14.43s-2 15.57-2 15.57c-14.64-11.27-4.25-17.11-6.14-30.04zm12.31 13c6.74 5.34 9.14 9.55 11.07 16.07s-0.63 18.76-0.63 18.76c-19.11-11.97-6.41-19.72-10.44-34.92zm-26.26 1c-8.63-5-8.74-11-9.15-19.71a80.64 80.64 0 0 0-1.39-10s4.93 5.16 7.08 6.91c6.68 5.42 11.36 7.61 12.15 17.21 0.45 5.5-0.82 8.1-0.82 8.1s-2.92 0.3-7.87-2.57zm90.22 128.73s-8.17 6.24-14.24 6.42-10.79-1-16.89-6c12.99 1.32 16.5-9.29 31.13-0.42zm19.29 5s-7.42 7.09-13.42 7.94-10.78 0.22-17.32-4.07c13-0.23 15.27-11.16 30.74-3.87zm-38-12s-8.84 5.29-14.94 4.79-10.7-2.21-16.27-7.9c12.8 2.77 17.56-7.35 31.2 3.11zm77.53 15.48s-5.73 8.52-11.38 10.64-10.46 2.52-17.72-0.24c12.65-3.04 12.43-14.19 29.09-10.42zm-95.15-24.71s-7.76 3.56-12.75 2.65-8.62-2.66-12.83-7.75c10.56 2.54 15.53-4.91 25.57 5.08zm75.3 24s-6.62 7.85-12.47 9.35-10.66 1.38-17.6-2.16c12.87-1.61 13.9-12.73 30.06-7.18zm9.4-13.46c4.76 2.53 10.34 10.85 10.34 10.85-16.95 4.51-15.1-6.85-25.48-13.42 6.72-0.93 10.42 0.03 15.14 2.57zm-50.54-11.19c6.77 0.54 10.19 2.28 14.3 5.78s7.77 12.82 7.77 12.82c-17.53 0.76-13.26-9.97-22.03-18.6zm17.54 5.28c6.76-0.21 10.34 1.15 14.8 4.19s9.09 11.9 9.09 11.9c-17.34 2.66-14.28-8.49-23.89-16.09zm-34.41-12.48c6.72 1.3 9.95 3.41 13.68 7.35s6.37 13.6 6.37 13.6c-17.64-1.16-12.21-11.4-20.06-20.95zm-29.11-15.29c5.41 2.26 7.78 4.6 10.24 8.5s2.95 12.25 2.95 12.25c-13.78-3.8-8.79-11.5-13.2-20.75zm12.94 6.18c6.59 2.08 9.61 4.55 12.92 8.89s4.9 14.3 4.9 14.3c-17.44-3.18-10.98-12.78-17.83-23.19zm-14.49 1.62c1.91 4 1.7 6.31 1.7 6.31s-2.08 1.11-6.61 0.39c-7.91-1.28-9.7-5.72-12.52-12.16a65 65 0 0 0-3.92-7.12s5.18 2.45 7.3 3.14c6.55 2.16 10.7 2.46 14.04 9.44zm116.32 38.11c-9.29-2-8.72-11.31-15.21-13.41 6.55-1.65 10.34-1.09 15.36 0.92 3.61 1.44 8.39 6.67 10.9 9.43a201.54 201.54 0 0 0 55.84-15.57c-2.58 0.36-5.14 0.68-7.67 0.94-4.67 0.47-9.23 0.78-13.65 0.94s-8.68 0.08-12.77 0-8-0.39-11.7-0.75-7.21-0.82-10.48-1.3c-6.56-0.95-12.2-2.16-16.81-3.23-2.31-0.54-4.37-1-6.14-1.53s-3.29-0.88-4.5-1.25l-3.72-1.11 3.82 0.7c1.24 0.24 2.78 0.5 4.59 0.79s3.89 0.63 6.22 1c4.66 0.67 10.34 1.36 16.85 1.88 3.26 0.24 6.73 0.45 10.4 0.55s7.5 0.16 11.5 0.09 8.17-0.27 12.47-0.65 8.73-0.81 13.26-1.46 9.19-1.52 13.87-2.52 9.49-2.1 14.32-3.38l0.85-0.24 0.88-0.49-0.73 0.45c9.35-2.52 18.92-5.6 28.62-8.79a280.28 280.28 0 0 1 31.38-8.7 146.77 146.77 0 0 1 32.78-3.22 81.73 81.73 0 0 1 16.29 2.08 57.9 57.9 0 0 1 15.17 5.79 45.86 45.86 0 0 1 12.28 10 51.91 51.91 0 0 1 4.52 6.18 54.82 54.82 0 0 1 3.42 6.57c0.51 1.11 0.9 2.24 1.35 3.35s0.77 2.23 1.09 3.39a28.61 28.61 0 0 1 1 7.15 36.62 36.62 0 0 1-2.16 13.14 35.6 35.6 0 0 1-14 17.91 34.94 34.94 0 0 1-8.56 4.07 40.52 40.52 0 0 1-7.8 1.66 49.26 49.26 0 0 1-11 0c-1.26-0.14-2.22-0.29-2.87-0.4l-1-0.16 1 0.07c0.66 0.05 1.63 0.08 2.89 0.12a51.3 51.3 0 0 0 10.82-0.87 36.42 36.42 0 0 0 15.11-6.51 31.49 31.49 0 0 0 7-7.16 34.45 34.45 0 0 0 4.81-9.89 32.64 32.64 0 0 0 1.37-11.73 24.7 24.7 0 0 0-1.15-5.94c-0.33-1-0.78-2-1.16-3s-0.86-2-1.36-3a50.07 50.07 0 0 0-3.32-5.8 46.16 46.16 0 0 0-4.22-5.29 42.34 42.34 0 0 0-11-8.35c-8.38-4.47-18.45-6.25-28.67-6.38a139.48 139.48 0 0 0-31.17 3.34 295.65 295.65 0 0 0-30.7 8.29c-2.51 0.8-5 1.64-7.6 2.41s-5.05 1.52-7.57 2.24c-5 1.44-10.06 2.79-15 4s-9.91 2.25-14.77 3.09l-3.13 0.51a205.5 205.5 0 0 1-58.69 19.83c-1.84 3.27-6 9.49-9.92 11.46-5.4 2.72-10.14 3.64-17.66 1.67 7.58-1.77 7-10.73 15.83-13.93zm-49.86-110.43s-10.27 0.3-15.32-3.09-8.2-7.08-10.23-14.7c9.8 8.62 18.84 2.04 25.55 17.79zm12.79 15.26s-10.18 1.43-15.53-1.37-8.89-6.11-11.71-13.41c10.68 7.41 18.9-0.13 27.24 14.78zm-23.9-31.9s-10.26-0.85-14.93-4.82-7.4-8-8.61-15.89c8.78 9.74 18.55 4.24 23.54 20.71zm54 57.79s-9.62 3.57-15.44 2-10-4-14.26-10.53c11.98 4.92 18.32-4.26 29.66 8.53zm-62.89-75.55s-8.39-1.64-11.91-5.29-5.45-7.18-5.9-13.76c7.06 8.22 15.42 5.09 17.77 19.05zm18.54 51.73c11.41 6.19 18.73-2.24 28.62 11.69 0 0-9.94 2.52-15.57 0.33s-9.51-5.1-13.09-12.02zm33.35-4.66c6 3.13 8.42 6.08 10.81 10.91s2.06 14.84 2.06 14.84c-16.44-6.22-8.29-14.37-12.91-25.75zm-23.73-27.64c5.18 4.38 6.95 7.79 8.25 13s-1.17 15-1.17 15c-14.75-9.63-5.02-15.88-7.12-28zm11.13 14.49c5.61 3.77 7.73 7 9.58 12s0.45 15 0.45 15c-15.71-7.95-6.71-15.2-10.07-27zm-20.68-30.2c4.69 5 6.09 8.57 6.83 13.94s-2.83 14.76-2.83 14.76c-13.58-11.19-3.23-16.37-4-28.7zm-16.12-4.85c-9-11.1-0.43-14.47 1.37-24.55 3.08 5 3.66 8.27 3.37 12.87s-4.78 11.68-4.78 11.68zm8.29-12c4.14 5.53 5.15 9.29 5.31 14.75s-4.32 14.44-4.32 14.44c-12.39-12.68-1.53-16.77-1.03-29.17zm-15-1s-2.34-0.3-5.6-3.54c-5.68-5.65-4.55-10.3-3.08-17.18a65.51 65.51 0 0 0 1-8.07s2.77 5 4.09 6.81c4.07 5.58 7.26 8.24 5.91 15.86-0.85 4.36-2.37 6.12-2.37 6.12zm292.42 109a63.84 63.84 0 0 0-19.48-7.29 113.94 113.94 0 0 0-23.48-2.22h-4.67l-1.53 0.08c-2 0.09-4.13 0.27-6.21 0.48a124.47 124.47 0 0 0-12.61 2.07 249.4 249.4 0 0 0-25.42 7.15c-8.49 2.8-17 5.72-25.56 8.33a253.8 253.8 0 0 1-25.48 6.47 186 186 0 0 1-24.45 3.1 171.06 171.06 0 0 1-22-0.12 181.63 181.63 0 0 1-18.43-2.23c-4.34-0.72-8.18-1.56-11.51-2.34q-6.92-1-13.91-2.29c-3.59 3-11.19 8.37-16.63 8.92-7.49 0.76-13.41-0.27-21.28-5.91 9.64 0.36 14.77-9 24.58-9.17-8.27-5.91-5.25-15.6-11.72-22.35 8.34 1 12.51 3.32 17.45 7.89 3.56 3.29 6.79 11.49 8.49 15.81a246.93 246.93 0 0 0 58.47 7.2c2-0.16 4-0.33 6.1-0.54a187.93 187.93 0 0 0 22-3.65 204.58 204.58 0 0 1-61.43-18.27c-3.4 1.59-10.4 4.22-14.74 3.54-6-0.94-10.36-3-15.33-8.94 7.2 3 11.93-4.66 21-2.1-6.38-7.05-0.49-14.28-4.53-19.76 6.28 2.47 9 5.13 11.94 9.69 2.09 3.28 2.92 10.31 3.36 14a201.36 201.36 0 0 0 61.93 21.33c7.91-1.85 16-4.18 24.12-6.84 8.35-2.69 16.78-5.75 25.37-8.59a227.72 227.72 0 0 1 26.2-7.36 125.47 125.47 0 0 1 13.36-2.06c2.24-0.2 4.43-0.44 6.68-0.51l1.68-0.17h2.39l0.86 0.16 1.61 0.16c4.31 0.14 8.55 0.43 12.69 1a90.74 90.74 0 0 1 12 2.3 64.68 64.68 0 0 1 20.53 9.18 48.46 48.46 0 0 1 13.3 13.59 51.65 51.65 0 0 1 6.1 13.13 63.22 63.22 0 0 1 2.09 9c0.18 1 0.25 1.85 0.33 2.39s0.1 0.82 0.1 0.82l-0.89-3.11a78.54 78.54 0 0 0-3.13-8.55 57.33 57.33 0 0 0-2.9-5.7 50.7 50.7 0 0 0-4.18-6.19 48 48 0 0 0-13.28-11.55z" />
</svg>