<?xml version="1.0" encoding="utf-8"?>
<svg version="1.1" id="Ebene_1_Kopie" xmlns="http://www.w3.org/2000/svg" xmlns:xlink="http://www.w3.org/1999/xlink" x="0px"
	 y="0px" viewBox="0 0 595.28 841.89" style="enable-background:new 0 0 595.28 841.89;" xml:space="preserve">
<style type="text/css">
	.st0{fill:none;stroke:#CABEBC;stroke-width:2;stroke-miterlimit:10;}
</style>
	<path id="XMLID_13_" class="st0" d="M223.61,165.44c7.52-7.93,19.84-7.93,27.36,0c7.52,7.93,22.26,11.88,32.74,8.77
		c10.48-3.11,21.15,3.05,23.7,13.68c2.55,10.63,13.34,21.42,23.97,23.97s16.79,13.21,13.68,23.7c-3.11,10.48,0.84,25.21,8.77,32.74
		s7.93,19.84,0,27.36s-11.88,22.26-8.77,32.74c3.11,10.48-3.05,21.15-13.68,23.7s-21.42,13.34-23.97,23.97s-13.21,16.79-23.7,13.68
		c-10.48-3.11-25.21,0.84-32.74,8.77c-7.52,7.93-19.84,7.93-27.36,0c-7.52-7.93-22.26-11.88-32.74-8.77
		c-10.48,3.11-21.15-3.05-23.7-13.68s-13.34-21.42-23.97-23.97s-16.79-13.21-13.68-23.7c3.11-10.48-0.84-25.21-8.77-32.74
		s-7.93-19.84,0-27.36s11.88-22.26,8.77-32.74c-3.11-10.48,3.05-21.15,13.68-23.7s21.42-13.34,23.97-23.97
		c2.55-10.63,13.21-16.79,23.7-13.68C201.35,177.31,216.09,173.37,223.61,165.44z"/>
</svg>
